<svg width="408" height="377" viewBox="0 0 408 377" fill="none" xmlns="http://www.w3.org/2000/svg">
<g clip-path="url(#clip0_55_911)">
<path d="M289.19 335.342H141.261C134.939 335.342 129.815 330.207 129.815 323.87V42.1563C129.815 35.821 134.939 30.6837 141.261 30.6837H289.19C295.511 30.6837 300.635 35.821 300.635 42.1563V323.87C300.635 330.207 295.511 335.342 289.19 335.342Z" fill="#0C1F34"/>
<path d="M289.19 335.341V334.802H141.261C138.246 334.802 135.523 333.579 133.548 331.601C131.573 329.621 130.353 326.891 130.353 323.87V42.1562C130.353 39.1357 131.573 36.4053 133.548 34.4254C135.523 32.4456 138.246 31.2227 141.261 31.2227H289.19C292.204 31.2227 294.927 32.4456 296.902 34.4254C298.877 36.4053 300.097 39.1357 300.097 42.1562V323.87C300.097 326.891 298.877 329.621 296.902 331.601C294.927 333.579 292.204 334.802 289.19 334.802V335.341V335.881C295.808 335.881 301.173 330.504 301.173 323.87V42.1562C301.173 35.5221 295.808 30.1454 289.19 30.1444H141.261C134.642 30.1454 129.277 35.5221 129.277 42.1562V323.87C129.277 330.504 134.642 335.881 141.261 335.881H289.19V335.341Z" fill="#17282F"/>
<path d="M192.385 191.048V181.056L183.751 186.052L192.385 191.048Z" fill="white"/>
<path d="M180.881 191.031H182.449V180.815H180.881V191.031Z" fill="white"/>
<path d="M238.065 191.048L246.699 186.052L238.065 181.056V191.048Z" fill="white"/>
<path d="M248 180.815V191.031H249.568V180.815H248Z" fill="white"/>
<path d="M221.564 191.854H217.616V177.827H221.564V191.854ZM213.848 191.854H209.9V177.827H213.848V191.854ZM215.732 171.532C208.399 171.532 202.454 177.49 202.454 184.84C202.454 192.19 208.399 198.149 215.732 198.149C223.065 198.149 229.01 192.19 229.01 184.84C229.01 177.49 223.065 171.532 215.732 171.532Z" fill="white"/>
<path d="M243.35 99.5368C243.35 84.0754 230.833 71.542 215.391 71.542C199.949 71.542 187.432 84.0754 187.432 99.5368C187.432 114.997 199.949 127.531 215.391 127.531C230.833 127.531 243.35 114.997 243.35 99.5368Z" fill="#6382A5"/>
<path d="M224.217 88.8698L208.93 93.4805V87.6859L224.217 83.0762V88.8698ZM227.808 80.6281C227.808 80.0524 227.543 79.5093 227.088 79.164C226.633 78.8197 226.047 78.7104 225.503 78.8758L206.624 84.5682C205.861 84.7986 205.338 85.5116 205.338 86.3214V108.318C204.717 108.074 204.049 107.927 203.343 107.927C200.275 107.927 197.787 110.458 197.787 113.581C197.787 116.705 200.275 119.237 203.343 119.237C206.246 119.237 208.602 116.963 208.851 114.074H208.93V97.2941L224.217 92.6825V102.396C223.607 102.161 222.952 102.017 222.26 102.017C219.192 102.017 216.705 104.549 216.705 107.672C216.705 110.795 219.192 113.328 222.26 113.328C225.329 113.328 227.817 110.795 227.817 107.672L227.808 107.587V80.6281Z" fill="#17282F"/>
<path d="M199.268 148.711H229.751C230.345 148.711 230.827 148.228 230.827 147.633C230.827 147.037 230.345 146.554 229.751 146.554H199.268C198.673 146.554 198.192 147.037 198.192 147.633C198.192 148.228 198.673 148.711 199.268 148.711Z" fill="white"/>
<path d="M191.378 154.821H237.64C238.234 154.821 238.716 154.339 238.716 153.743C238.716 153.147 238.234 152.664 237.64 152.664H191.378C190.784 152.664 190.302 153.147 190.302 153.743C190.302 154.339 190.784 154.821 191.378 154.821Z" fill="white"/>
<path d="M280.605 228.39C280.605 224.4 277.378 221.165 273.398 221.165C269.417 221.165 266.19 224.4 266.19 228.39C266.19 232.38 269.417 235.614 273.398 235.614C277.378 235.614 280.605 232.38 280.605 228.39Z" fill="white"/>
<path d="M270.308 233.496L278.94 228.5L270.308 223.504V233.496Z" fill="#17282F"/>
<path d="M149.845 229.947H181.045C181.639 229.947 182.121 229.464 182.121 228.869C182.121 228.273 181.639 227.79 181.045 227.79H149.845C149.25 227.79 148.77 228.273 148.77 228.869C148.77 229.464 149.25 229.947 149.845 229.947Z" fill="white"/>
<path d="M149.845 224.016H171.363C171.957 224.016 172.439 223.533 172.439 222.938C172.439 222.342 171.957 221.859 171.363 221.859H149.845C149.25 221.859 148.77 222.342 148.77 222.938C148.77 223.533 149.25 224.016 149.845 224.016Z" fill="white"/>
<path d="M190.19 230.296H260.121C260.418 230.296 260.659 230.055 260.659 229.757C260.659 229.46 260.418 229.218 260.121 229.218H190.19C189.892 229.218 189.652 229.46 189.652 229.757C189.652 230.055 189.892 230.296 190.19 230.296Z" fill="white"/>
<path d="M280.605 249.957C280.605 245.967 277.378 242.732 273.398 242.732C269.417 242.732 266.19 245.967 266.19 249.957C266.19 253.947 269.417 257.181 273.398 257.181C277.378 257.181 280.605 253.947 280.605 249.957Z" fill="white"/>
<path d="M270.308 255.063L278.94 250.067L270.308 245.071V255.063Z" fill="#17282F"/>
<path d="M149.845 251.514H181.045C181.639 251.514 182.121 251.031 182.121 250.436C182.121 249.841 181.639 249.357 181.045 249.357H149.845C149.25 249.357 148.77 249.841 148.77 250.436C148.77 251.031 149.25 251.514 149.845 251.514Z" fill="white"/>
<path d="M149.845 245.583H171.363C171.957 245.583 172.439 245.1 172.439 244.505C172.439 243.91 171.957 243.427 171.363 243.427H149.845C149.25 243.427 148.77 243.91 148.77 244.505C148.77 245.1 149.25 245.583 149.845 245.583Z" fill="white"/>
<path d="M190.19 251.864H260.121C260.418 251.864 260.659 251.622 260.659 251.324C260.659 251.027 260.418 250.785 260.121 250.785H190.19C189.892 250.785 189.652 251.027 189.652 251.324C189.652 251.622 189.892 251.864 190.19 251.864Z" fill="white"/>
<path d="M280.605 271.524C280.605 267.534 277.378 264.299 273.398 264.299C269.417 264.299 266.19 267.534 266.19 271.524C266.19 275.514 269.417 278.748 273.398 278.748C277.378 278.748 280.605 275.514 280.605 271.524Z" fill="white"/>
<path d="M270.308 276.63L278.94 271.634L270.308 266.638V276.63Z" fill="#17282F"/>
<path d="M149.845 273.081H181.045C181.639 273.081 182.121 272.598 182.121 272.003C182.121 271.408 181.639 270.925 181.045 270.925H149.845C149.25 270.925 148.77 271.408 148.77 272.003C148.77 272.598 149.25 273.081 149.845 273.081Z" fill="white"/>
<path d="M149.845 267.15H171.363C171.957 267.15 172.439 266.667 172.439 266.072C172.439 265.477 171.957 264.994 171.363 264.994H149.845C149.25 264.994 148.77 265.477 148.77 266.072C148.77 266.667 149.25 267.15 149.845 267.15Z" fill="white"/>
<path d="M190.19 273.431H260.121C260.418 273.431 260.659 273.189 260.659 272.891C260.659 272.594 260.418 272.352 260.121 272.352H190.19C189.892 272.352 189.652 272.594 189.652 272.891C189.652 273.189 189.892 273.431 190.19 273.431Z" fill="white"/>
<path d="M280.605 293.091C280.605 289.101 277.378 285.866 273.398 285.866C269.417 285.866 266.19 289.101 266.19 293.091C266.19 297.081 269.417 300.315 273.398 300.315C277.378 300.315 280.605 297.081 280.605 293.091Z" fill="white"/>
<path d="M270.308 298.198L278.94 293.202L270.308 288.205V298.198Z" fill="#17282F"/>
<path d="M149.845 294.648H181.045C181.639 294.648 182.121 294.165 182.121 293.57C182.121 292.975 181.639 292.492 181.045 292.492H149.845C149.25 292.492 148.77 292.975 148.77 293.57C148.77 294.165 149.25 294.648 149.845 294.648Z" fill="white"/>
<path d="M149.845 288.718H171.363C171.957 288.718 172.439 288.234 172.439 287.639C172.439 287.044 171.957 286.561 171.363 286.561H149.845C149.25 286.561 148.77 287.044 148.77 287.639C148.77 288.234 149.25 288.718 149.845 288.718Z" fill="white"/>
<path d="M190.19 294.998H260.121C260.418 294.998 260.659 294.756 260.659 294.459C260.659 294.161 260.418 293.919 260.121 293.919H190.19C189.892 293.919 189.652 294.161 189.652 294.459C189.652 294.756 189.892 294.998 190.19 294.998Z" fill="white"/>
<path d="M280.605 314.658C280.605 310.669 277.378 307.433 273.398 307.433C269.417 307.433 266.19 310.669 266.19 314.658C266.19 318.648 269.417 321.883 273.398 321.883C277.378 321.883 280.605 318.648 280.605 314.658Z" fill="white"/>
<path d="M270.308 319.765L278.94 314.769L270.308 309.773V319.765Z" fill="#17282F"/>
<path d="M149.845 316.216H181.045C181.639 316.216 182.121 315.733 182.121 315.137C182.121 314.542 181.639 314.059 181.045 314.059H149.845C149.25 314.059 148.77 314.542 148.77 315.137C148.77 315.733 149.25 316.216 149.845 316.216Z" fill="white"/>
<path d="M149.845 310.285H171.363C171.957 310.285 172.439 309.801 172.439 309.206C172.439 308.611 171.957 308.128 171.363 308.128H149.845C149.25 308.128 148.77 308.611 148.77 309.206C148.77 309.801 149.25 310.285 149.845 310.285Z" fill="white"/>
<path d="M190.19 316.565H260.121C260.418 316.565 260.659 316.324 260.659 316.026C260.659 315.728 260.418 315.487 260.121 315.487H190.19C189.892 315.487 189.652 315.728 189.652 316.026C189.652 316.324 189.892 316.565 190.19 316.565Z" fill="white"/>
<path d="M150.481 212.104H279.968V211.026H150.481V212.104Z" fill="#6382A5"/>
<path d="M352.485 301.282C348.453 305.946 347.39 311.006 347.168 312.359L336.498 318.354V290.013L336.708 290.3L353.701 277.83C355.845 278.168 364.094 279.104 371.612 275.046C380.337 270.337 386.714 254.192 386.714 254.192C386.714 254.192 365.908 251.838 358.86 260.583C353.141 267.681 352.947 274.556 353.078 276.895L336.498 289.06V268.128C338.494 267.244 346.493 263.12 349.129 252.846C352.149 241.073 336.041 217.866 336.041 217.866C336.041 217.866 319.263 241.746 322.618 253.856C325.462 264.116 333.104 267.363 335.376 268.118V313.508L323.409 303.512C323.686 301.124 323.896 293.641 317.249 286.146C309.195 277.064 287.717 277.737 287.717 277.737C287.717 277.737 296.778 295.9 304.496 301.954C311.242 307.246 320.548 305.087 322.788 304.459L335.376 314.972V328.772H316.669L324.301 376.586H347.199L354.831 328.772H336.498V319.646L348.22 313.058C351.072 313.853 359.036 315.489 366.578 311.708C375.976 307 383.693 296.91 383.693 296.91C383.693 296.91 361.21 291.191 352.485 301.282Z" fill="#93D222"/>
<path d="M347.199 376.586H324.301L316.669 328.772H335.376V314.972L322.788 304.459C321.702 304.763 318.953 305.428 315.639 305.428C312.122 305.428 307.969 304.679 304.496 301.954C303.407 301.099 302.288 300.001 301.173 298.748C300.814 298.344 300.456 297.924 300.097 297.49C293.709 289.747 287.717 277.737 287.717 277.737C287.717 277.737 288.076 277.726 288.716 277.726C293.039 277.726 310.235 278.236 317.249 286.146C322.617 292.199 323.513 298.245 323.513 301.604C323.513 302.405 323.463 303.053 323.409 303.512L335.376 313.508V268.118C333.104 267.363 325.462 264.116 322.618 253.856C322.314 252.756 322.175 251.559 322.174 250.292C322.172 237.605 336.041 217.866 336.041 217.866C336.041 217.866 349.499 237.256 349.505 249.58C349.506 250.739 349.388 251.834 349.129 252.846C346.493 263.12 338.494 267.244 336.498 268.128V289.06L353.078 276.895C353.064 276.642 353.053 276.335 353.055 275.981C353.055 273.063 353.76 266.912 358.86 260.583C363.442 254.898 373.835 253.904 380.549 253.904C384.164 253.904 386.714 254.192 386.714 254.192C386.714 254.192 380.337 270.337 371.612 275.046C366.913 277.582 361.928 278.168 358.327 278.168C356.167 278.168 354.505 277.957 353.701 277.83L336.708 290.3L336.498 290.013V318.354L347.168 312.359C347.39 311.006 348.453 305.946 352.485 301.282C356.575 296.552 363.687 295.295 370.091 295.295C377.348 295.295 383.693 296.91 383.693 296.91C383.693 296.91 375.976 307 366.578 311.708C362.922 313.54 359.169 314.101 355.944 314.101C352.517 314.101 349.689 313.468 348.22 313.058L336.498 319.646V328.772H354.831L347.199 376.586Z" fill="#6382A5"/>
<path d="M113.041 101.018C113.723 104.546 112.119 107.824 109.456 108.342C106.793 108.859 104.081 106.42 103.399 102.894C102.716 99.3675 104.321 96.0882 106.984 95.5706C109.647 95.053 112.358 97.4923 113.041 101.018Z" fill="#17282F"/>
<path d="M113.041 101.018L112.513 101.121C112.613 101.636 112.66 102.145 112.66 102.638C112.661 103.975 112.309 105.193 111.719 106.106C111.125 107.021 110.314 107.624 109.353 107.812C109.147 107.852 108.941 107.871 108.735 107.871C107.703 107.872 106.655 107.376 105.779 106.478C104.904 105.583 104.217 104.297 103.927 102.791C103.827 102.276 103.779 101.767 103.779 101.274C103.779 99.9368 104.131 98.7193 104.721 97.806C105.314 96.8915 106.125 96.2876 107.086 96.1C107.292 96.0601 107.498 96.0407 107.703 96.0407C108.736 96.0396 109.784 96.5367 110.66 97.4339C111.535 98.329 112.222 99.6154 112.513 101.121L113.041 101.018L113.569 100.915C113.239 99.2132 112.464 97.7413 111.429 96.6791C110.396 95.6201 109.086 94.9634 107.703 94.9623C107.43 94.9623 107.155 94.9882 106.881 95.041C105.593 95.2901 104.534 96.1075 103.818 97.2204C103.1 98.3354 102.704 99.7502 102.704 101.274C102.704 101.836 102.758 102.414 102.87 102.996C103.201 104.699 103.975 106.171 105.01 107.232C106.043 108.292 107.353 108.949 108.735 108.95C109.008 108.95 109.284 108.924 109.558 108.871C110.846 108.621 111.906 107.804 112.621 106.692C113.34 105.578 113.735 104.162 113.736 102.638C113.736 102.076 113.682 101.498 113.569 100.915L113.041 101.018Z" fill="#17282F"/>
<path d="M87.4373 113.346L86.9006 113.309C86.9002 113.311 86.374 121.044 86.1979 124.393C86.1114 126.048 85.9811 127.173 85.8743 127.878C85.8209 128.231 85.7739 128.479 85.7402 128.635L85.7025 128.802L85.6932 128.838L85.6915 128.843C85.6247 129.079 85.7243 129.33 85.9336 129.455L95.0541 134.905C95.1978 134.991 95.3709 135.005 95.5264 134.944C95.682 134.882 95.7991 134.754 95.8463 134.593L99.5294 121.935C99.5933 121.717 99.5134 121.483 99.3298 121.348L87.7533 112.91C87.5953 112.794 87.3868 112.775 87.2095 112.857C87.0321 112.94 86.9137 113.113 86.9006 113.309L87.4373 113.346L87.1208 113.782L98.3909 121.997L95.0078 133.623L86.4845 128.529L86.2089 128.992L86.7262 129.14C86.7405 129.089 87.0952 127.82 87.2726 124.45C87.3599 122.785 87.5352 120.017 87.6891 117.666C87.8424 115.315 87.9735 113.387 87.9739 113.383L87.4373 113.346L87.1208 113.782L87.4373 113.346Z" fill="#17282F"/>
<path d="M98.9399 82.2345C95.3236 80.9005 91.2332 80.9674 87.2618 81.8775C81.123 83.2837 77.7904 89.0853 77.2642 96.293C76.7381 103.501 82.7015 111.939 84.4557 113.874C86.209 115.807 92.1724 121.257 97.4346 123.718C102.697 126.179 106.029 122.663 108.309 118.62C110.589 114.577 110.238 108.423 110.238 102.271C110.238 96.5303 108.563 90.3879 104.632 86.0745C102.971 84.2521 101.035 83.0087 98.9399 82.2345Z" fill="white"/>
<path d="M98.9399 82.2344L99.1256 81.7286C97.1303 80.9921 95.0058 80.6718 92.8474 80.6718C90.9532 80.6718 89.0318 80.9188 87.1419 81.3512C83.9332 82.0834 81.4361 83.9867 79.7092 86.6125C77.979 89.2383 76.9964 92.578 76.7279 96.253C76.7048 96.5701 76.6934 96.8882 76.6934 97.2074C76.6977 100.846 78.1197 104.61 79.7366 107.717C81.3592 110.825 83.173 113.258 84.0577 114.236C85.8694 116.225 91.8198 121.678 97.2071 124.206C98.4758 124.8 99.6644 125.073 100.77 125.073C102.624 125.075 104.207 124.3 105.512 123.149C106.821 121.998 107.881 120.472 108.777 118.886C110.611 115.613 110.789 111.215 110.796 106.583C110.796 105.159 110.776 103.713 110.776 102.271C110.774 96.4288 109.08 90.1625 105.029 85.711C103.31 83.8239 101.295 82.5288 99.1256 81.7286L98.9399 82.2344L98.7536 82.7412C100.774 83.4874 102.631 84.6801 104.235 86.4378C108.047 90.6143 109.702 96.6315 109.7 102.271C109.7 103.722 109.72 105.169 109.72 106.583C109.726 111.185 109.495 115.441 107.84 118.355C106.981 119.881 105.973 121.312 104.803 122.339C103.628 123.367 102.32 123.993 100.77 123.995C99.8418 123.995 98.8142 123.767 97.6623 123.229C92.525 120.836 86.5489 115.39 84.8536 113.511C84.0577 112.635 82.2593 110.231 80.6901 107.218C79.1149 104.202 77.7655 100.56 77.7692 97.2074C77.7692 96.913 77.7798 96.6208 77.8007 96.3318C78.058 92.8001 79.0049 89.6351 80.6068 87.2067C82.2127 84.7782 84.4514 83.0776 87.3814 82.4026C89.2037 81.9853 91.0466 81.7502 92.8474 81.7502C94.8999 81.7502 96.8966 82.0554 98.7536 82.7412L98.9399 82.2344Z" fill="#17282F"/>
<path d="M104.442 103.734C104.442 103.738 104.66 105.799 104.88 107.951C104.989 109.026 105.099 110.124 105.181 110.995C105.222 111.431 105.256 111.81 105.28 112.1C105.303 112.385 105.316 112.599 105.316 112.643H105.659L105.399 112.419L105.316 112.643H105.659L105.399 112.419L105.592 112.585L105.477 112.355L105.399 112.419L105.592 112.585L105.477 112.355L105.477 112.354C105.45 112.363 105.353 112.377 105.228 112.376C104.849 112.378 104.229 112.273 103.73 112.164C103.479 112.109 103.255 112.055 103.095 112.015C102.934 111.974 102.841 111.948 102.84 111.948C102.554 111.868 102.257 112.036 102.178 112.323C102.099 112.61 102.266 112.906 102.552 112.986C102.559 112.988 102.97 113.103 103.503 113.218C104.041 113.333 104.686 113.453 105.228 113.454C105.448 113.452 105.651 113.44 105.874 113.357C105.984 113.314 106.107 113.247 106.216 113.121C106.325 112.998 106.395 112.808 106.392 112.643C106.391 112.511 106.376 112.313 106.352 112.011C106.183 109.942 105.511 103.623 105.511 103.619C105.48 103.324 105.215 103.109 104.919 103.141C104.624 103.172 104.41 103.438 104.442 103.734Z" fill="#17282F"/>
<path d="M95.0174 109.296C95.0489 109.305 95.6684 109.466 96.5736 109.466C97.8323 109.468 99.6941 109.143 101.161 107.56C101.363 107.342 101.351 107 101.133 106.798C100.915 106.596 100.575 106.608 100.373 106.826C99.1804 108.114 97.6671 108.386 96.5736 108.388C96.1861 108.388 95.8574 108.353 95.6301 108.318C95.5163 108.301 95.4275 108.283 95.3695 108.271L95.3057 108.256L95.2914 108.253C95.0039 108.178 94.7098 108.349 94.634 108.637C94.5584 108.926 94.7303 109.22 95.0174 109.296Z" fill="#17282F"/>
<path d="M105.737 105.786C105.764 105.791 106.121 105.87 106.639 105.87C107.188 105.869 107.927 105.784 108.632 105.383C109.338 104.986 109.974 104.241 110.236 103.098C110.304 102.808 110.124 102.517 109.835 102.45C109.547 102.381 109.256 102.561 109.188 102.851C108.973 103.739 108.564 104.173 108.098 104.447C107.632 104.716 107.073 104.793 106.639 104.792C106.436 104.792 106.262 104.777 106.142 104.76L106.006 104.74L105.975 104.734L105.97 104.732C105.68 104.669 105.393 104.851 105.328 105.142C105.264 105.433 105.447 105.721 105.737 105.786Z" fill="#17282F"/>
<path d="M94.8152 104.754L94.8169 104.725C94.8287 104.542 94.938 103.574 95.4859 102.712C95.7591 102.28 96.134 101.872 96.6643 101.566C97.1955 101.262 97.8902 101.052 98.838 101.052C99.135 101.052 99.3759 100.81 99.3759 100.513C99.3759 100.214 99.135 99.9734 98.838 99.9734C97.6566 99.9713 96.7131 100.261 95.9911 100.714C94.9043 101.394 94.3441 102.403 94.0575 103.216C93.7696 104.033 93.7423 104.674 93.7402 104.708C93.728 105.006 93.9583 105.257 94.2554 105.27C94.5522 105.282 94.8026 105.051 94.8152 104.754Z" fill="#17282F"/>
<path d="M105.217 100.326L105.054 100.193L105.215 100.328L105.217 100.326L105.054 100.193L105.215 100.328C105.22 100.323 105.441 100.063 105.831 99.816C106.224 99.5669 106.773 99.3307 107.469 99.3307C107.863 99.3307 108.306 99.4051 108.81 99.6068C109.086 99.7168 109.399 99.5831 109.51 99.3059C109.62 99.0299 109.486 98.7161 109.21 98.605C108.587 98.3548 108 98.2513 107.469 98.2524C106.494 98.2524 105.722 98.5964 105.205 98.9371C104.686 99.2779 104.409 99.6144 104.384 99.6435C104.196 99.8742 104.23 100.214 104.46 100.403C104.69 100.591 105.029 100.557 105.217 100.326Z" fill="#17282F"/>
<path d="M96.9351 114.952C96.9583 115.01 97.1655 115.503 97.758 115.991C98.3489 116.48 99.3281 116.938 100.783 116.935C101.56 116.935 102.472 116.809 103.545 116.502C103.831 116.42 103.996 116.121 103.915 115.835C103.833 115.548 103.535 115.383 103.25 115.465C102.256 115.75 101.443 115.857 100.783 115.857C99.5454 115.853 98.8503 115.49 98.4401 115.157C98.2354 114.99 98.1039 114.825 98.0253 114.708L97.9459 114.576L97.9325 114.548L97.9316 114.545L97.6441 114.668L97.9341 114.552L97.9316 114.545L97.6441 114.668L97.9341 114.552C97.824 114.276 97.5109 114.141 97.2348 114.251C96.9591 114.362 96.8247 114.676 96.9351 114.952Z" fill="#17282F"/>
<path d="M85.6831 87.4159C85.6831 93.678 80.6181 98.7549 74.3702 98.7549C68.1222 98.7549 63.0571 93.678 63.0571 87.4159C63.0571 81.1528 68.1222 76.0759 74.3702 76.0759C80.6181 76.0759 85.6831 81.1528 85.6831 87.4159Z" fill="#17282F"/>
<path d="M85.6834 87.4161H85.1455C85.1451 90.3999 83.9402 93.0958 81.9893 95.0519C80.0377 97.0081 77.3476 98.2158 74.3705 98.2158C71.3934 98.2158 68.7028 97.0081 66.7516 95.0519C64.8008 93.0958 63.5958 90.3999 63.5954 87.4161C63.5958 84.4312 64.8008 81.7342 66.7516 79.7781C68.7028 77.823 71.3934 76.6152 74.3705 76.6152C77.3476 76.6152 80.0377 77.823 81.9893 79.7781C83.9402 81.7353 85.1451 84.4312 85.1455 87.4161H85.6834H86.2214C86.2209 80.8553 80.9156 75.5369 74.3705 75.5369C67.8249 75.5369 62.52 80.8553 62.5195 87.4161C62.52 93.9757 67.8249 99.2931 74.3705 99.2942C80.9156 99.2931 86.2209 93.9757 86.2214 87.4161H85.6834Z" fill="#17282F"/>
<path d="M104.632 86.0745C102.971 84.252 101.035 83.0076 98.94 82.2344C95.3237 80.9005 91.2332 80.9674 87.2618 81.8775C81.123 83.2837 77.7904 89.0852 77.2642 96.293C76.8692 101.704 80.1304 107.807 82.5234 111.332C83.1025 110.455 83.6929 108.902 83.9291 106.137C84.4557 99.9853 85.1567 92.0734 88.3141 90.843C91.4715 89.6126 96.2069 91.5471 99.3635 90.843C102.521 90.1399 100.592 87.8548 104.099 87.8548C104.824 87.8548 105.546 87.9713 106.243 88.1557C105.751 87.4289 105.225 86.7258 104.632 86.0745Z" fill="#17282F"/>
<path d="M104.632 86.0746L105.029 85.7112C103.31 83.824 101.295 82.5289 99.1256 81.7288C97.1306 80.9923 95.0062 80.672 92.8482 80.672C90.9536 80.672 89.0322 80.9189 87.1419 81.3514C83.9332 82.0836 81.4361 83.9869 79.7092 86.6127C77.979 89.2385 76.9964 92.5782 76.7279 96.2532C76.7048 96.5702 76.6934 96.8884 76.6934 97.2076C76.7056 102.587 79.7937 108.255 82.0786 111.636C82.1799 111.785 82.3471 111.872 82.5266 111.871C82.7069 111.87 82.8729 111.781 82.9721 111.63C83.6192 110.647 84.2232 109.006 84.4653 106.184C84.7275 103.109 85.0352 99.6091 85.6605 96.76C85.9715 95.3366 86.3644 94.0782 86.8494 93.1335C87.3353 92.1824 87.9013 91.5785 88.509 91.3456C89.2192 91.0684 90.0543 90.9617 90.9646 90.9617C93.0701 90.9574 95.5265 91.5365 97.7148 91.5419C98.3241 91.5419 98.9167 91.4955 99.4803 91.3704C100.338 91.1806 100.922 90.8582 101.319 90.4646C101.617 90.1713 101.8 89.8564 101.942 89.5911C102.156 89.1813 102.289 88.9128 102.522 88.7392C102.751 88.5634 103.171 88.3952 104.099 88.3941C104.766 88.3941 105.443 88.502 106.105 88.6777C106.322 88.7349 106.552 88.6508 106.682 88.4675C106.811 88.2841 106.814 88.0383 106.688 87.8528C106.186 87.113 105.646 86.3884 105.029 85.7112L104.632 86.0746L104.235 86.438C104.805 87.0634 105.315 87.746 105.798 88.4588L106.243 88.1558L106.381 87.635C105.649 87.4409 104.881 87.3158 104.099 87.3158C103.169 87.3158 102.523 87.4646 102.04 87.7654C101.679 87.9876 101.442 88.2885 101.277 88.5624C101.029 88.9818 100.894 89.3334 100.65 89.604C100.409 89.8736 100.058 90.1314 99.247 90.3169C98.7856 90.4204 98.2695 90.4635 97.7148 90.4635C95.7114 90.4678 93.247 89.8887 90.9646 89.8834C89.9736 89.8844 89.0075 89.9955 88.119 90.3406C87.1482 90.7234 86.4426 91.5699 85.8924 92.6407C85.0683 94.255 84.5569 96.4516 84.1837 98.8359C83.813 101.218 83.5907 103.783 83.3932 106.091C83.1624 108.8 82.5854 110.263 82.0744 111.034L82.5233 111.332L82.9683 111.029C80.7351 107.753 77.7575 102.17 77.7692 97.2076C77.7692 96.9132 77.7798 96.6209 77.8007 96.3319C78.058 92.8003 79.0049 89.6353 80.6068 87.2069C82.2126 84.7784 84.4514 83.0778 87.3814 82.4028C89.2042 81.9854 91.047 81.7503 92.8482 81.7503C94.9003 81.7503 96.897 82.0555 98.7536 82.7414C100.774 83.4865 102.631 84.6803 104.235 86.438L104.632 86.0746Z" fill="#17282F"/>
<path d="M71.1256 76.24C71.0692 76.241 68.9684 76.2464 66.3619 77.5976C63.7559 78.9445 60.6631 81.6598 58.6947 86.9632C58.5909 87.2424 58.7321 87.553 59.0107 87.6576C59.2889 87.7611 59.5987 87.6188 59.7025 87.3406C61.5928 82.2712 64.4641 79.8007 66.8566 78.5552C68.0535 77.9341 69.1335 77.6246 69.9093 77.4704C70.2968 77.3938 70.6078 77.355 70.8188 77.3366C70.9242 77.328 71.0046 77.3226 71.0566 77.3205L71.1133 77.3183H71.1256C71.4226 77.3183 71.6635 77.0778 71.6635 76.7791C71.6635 76.4815 71.4226 76.24 71.1256 76.24Z" fill="#17282F"/>
<path d="M89.3664 107.017C91.3139 110.033 91.0458 113.675 88.7688 115.152C86.4919 116.629 83.0676 115.381 81.1205 112.365C79.173 109.349 79.4408 105.707 81.7177 104.23C83.9947 102.753 87.4194 104.001 89.3664 107.017Z" fill="#17282F"/>
<path d="M89.3665 107.017L88.9148 107.311C89.736 108.581 90.131 109.964 90.1306 111.205C90.1273 112.734 89.5456 114.007 88.4769 114.7C87.9196 115.061 87.285 115.233 86.6008 115.234C84.8904 115.242 82.8765 114.1 81.572 112.073C80.7508 110.802 80.3558 109.418 80.3561 108.178C80.3596 106.649 80.9412 105.375 82.01 104.683C82.5672 104.322 83.2018 104.149 83.8859 104.149C85.5964 104.141 87.6107 105.282 88.9148 107.311L89.3665 107.017L89.8179 106.724C88.3395 104.441 86.0612 103.078 83.8859 103.071C83.0189 103.069 82.1675 103.296 81.4253 103.777C79.9846 104.713 79.2774 106.382 79.2803 108.178C79.2811 109.645 79.7414 111.221 80.6689 112.658C82.1478 114.941 84.426 116.305 86.6008 116.313C87.4678 116.313 88.3193 116.087 89.0615 115.605C90.5021 114.669 91.2094 113 91.2065 111.205C91.2056 109.738 90.7454 108.161 89.8179 106.724L89.3665 107.017Z" fill="#17282F"/>
<path d="M87.4676 108.455C89.2634 111.237 89.0167 114.596 86.9167 115.958C84.8162 117.321 81.6575 116.17 79.8622 113.388C78.066 110.606 78.3127 107.247 80.4132 105.885C82.5132 104.523 85.6715 105.674 87.4676 108.455Z" fill="white"/>
<path d="M87.4675 108.455L87.0161 108.748C87.7688 109.914 88.131 111.183 88.1302 112.318C88.1273 113.718 87.5956 114.876 86.624 115.506C86.1176 115.834 85.5406 115.991 84.916 115.992C83.3569 115.999 81.5094 114.955 80.3134 113.095C79.5603 111.93 79.1985 110.661 79.1989 109.526C79.2023 108.126 79.7338 106.967 80.7051 106.338C81.2119 106.01 81.789 105.853 82.4131 105.852C83.9726 105.844 85.8197 106.888 87.0161 108.748L87.4675 108.455L87.9192 108.163C86.5483 106.047 84.437 104.781 82.4131 104.773C81.6062 104.772 80.8127 104.983 80.1209 105.432C78.7774 106.304 78.12 107.861 78.1231 109.526C78.1238 110.888 78.5508 112.349 79.4102 113.682C80.7808 115.797 82.8926 117.063 84.916 117.071C85.7229 117.071 86.5168 116.861 87.2086 116.411C88.5521 115.538 89.2094 113.983 89.206 112.318C89.2052 110.955 88.7787 109.494 87.9192 108.163L87.4675 108.455Z" fill="#17282F"/>
<path d="M82.235 104.084L82.1976 103.942C82.0224 103.268 81.305 100.267 81.3058 96.7062C81.3033 93.2705 81.977 89.341 84.3459 86.437C86.0712 84.3191 88.0556 83.0897 89.9577 82.3802C91.8586 81.6706 93.6774 81.4884 95.0348 81.4884C95.7401 81.4884 96.3195 81.538 96.7196 81.5865C96.9196 81.6102 97.0748 81.634 97.1782 81.6523L97.2933 81.6728L97.3261 81.6792C97.6165 81.7418 97.9027 81.5574 97.9649 81.2651C98.027 80.974 97.8422 80.6882 97.5517 80.6246C97.5241 80.6192 96.5444 80.41 95.0348 80.41C93.5829 80.4111 91.6379 80.6041 89.5824 81.3698C87.5285 82.1343 85.3647 83.479 83.5121 85.7554C80.9082 88.9636 80.232 93.1411 80.23 96.7062C80.2312 100.939 81.1928 104.347 81.1999 104.377C81.2806 104.663 81.5777 104.831 81.8635 104.75C82.1496 104.669 82.3161 104.37 82.235 104.084Z" fill="white"/>
<path d="M74.6338 332.217C74.6338 332.217 76.7381 367.026 76.7381 369.839C76.7381 372.652 75.6857 375.113 79.1936 375.993C82.7015 376.87 87.0865 374.761 90.0682 375.816C93.05 376.87 97.9607 376.694 100.942 376.168C103.924 375.639 106.204 372.827 104.45 372.652C102.697 372.476 94.4528 368.959 91.1201 366.85C87.7875 364.741 86.9108 363.334 86.9108 363.334L87.9631 332.393L74.6338 332.217Z" fill="white"/>
<path d="M74.6338 332.218L74.0967 332.25C74.0972 332.255 74.2282 334.425 74.4253 337.732C74.7212 342.693 75.165 350.2 75.5353 356.73C75.7202 359.994 75.8865 363.016 76.0068 365.35C76.127 367.68 76.2005 369.345 76.2002 369.839C76.2013 370.844 76.0538 371.841 76.0522 372.79C76.0525 373.577 76.1572 374.365 76.6271 375.048C77.0977 375.733 77.8934 376.224 79.0629 376.515C79.7505 376.687 80.4565 376.75 81.1659 376.75C83.5571 376.744 86.0266 376.045 88.0321 376.052C88.7184 376.052 89.3429 376.13 89.8888 376.325C91.5644 376.914 93.7187 377.124 95.8396 377.126C97.7329 377.126 99.5921 376.953 101.036 376.699C102.272 376.479 103.37 375.913 104.183 375.273C104.59 374.953 104.925 374.613 105.173 374.27C105.416 373.924 105.593 373.581 105.6 373.17C105.606 372.912 105.495 372.61 105.273 372.42C105.054 372.227 104.786 372.144 104.504 372.115C104.18 372.088 103.327 371.843 102.279 371.46C99.1076 370.316 93.8358 367.935 91.4076 366.394C89.7691 365.356 88.7461 364.5 88.1397 363.912C87.8363 363.619 87.637 363.394 87.5168 363.246L87.392 363.084L87.3685 363.05L87.3672 363.048L86.9108 363.334L87.4483 363.352L88.5007 332.412C88.5057 332.267 88.4516 332.125 88.3524 332.021C88.2532 331.917 88.1141 331.856 87.9703 331.854L74.6405 331.678C74.4909 331.676 74.3476 331.736 74.2442 331.846C74.1408 331.953 74.0875 332.1 74.0967 332.25L74.6338 332.218L74.6267 332.757L87.4068 332.925L86.3733 363.315C86.3695 363.423 86.3977 363.528 86.4549 363.619C86.504 363.699 87.4458 365.162 90.8331 367.306C92.5494 368.391 95.4496 369.797 98.1646 370.971C99.5211 371.557 100.828 372.082 101.914 372.475C103.008 372.867 103.844 373.128 104.397 373.188L104.537 373.217L104.56 373.228L104.617 373.149L104.532 373.19L104.56 373.228L104.617 373.149L104.532 373.19L104.614 373.15L104.524 373.169L104.532 373.19L104.614 373.15L104.524 373.169L104.524 373.17C104.531 373.201 104.476 373.403 104.3 373.64C103.785 374.374 102.386 375.375 100.849 375.637C99.4792 375.879 97.6665 376.047 95.8396 376.047C93.7947 376.049 91.7224 375.832 90.2473 375.308C89.5455 375.059 88.7982 374.974 88.0321 374.973C85.8043 374.981 83.3508 375.679 81.1659 375.672C80.5208 375.672 79.9031 375.614 79.3239 375.468C78.3014 375.209 77.795 374.843 77.5122 374.435C77.228 374.027 77.1277 373.488 77.1281 372.79C77.1259 371.957 77.2743 370.942 77.276 369.839C77.2752 369.096 77.1436 366.411 76.9465 362.745C76.3543 351.765 75.1704 332.185 75.1704 332.185L74.6338 332.218L74.6267 332.757L74.6338 332.218Z" fill="#17282F"/>
<path d="M104.451 372.652C102.697 372.476 94.4531 368.959 91.1204 366.85C87.7878 364.741 86.9111 363.334 86.9111 363.334C86.9111 363.334 84.6312 364.565 84.8065 366.147C84.9817 367.729 85.3325 368.959 85.3325 368.959C85.3325 368.959 80.8716 369.115 76.6568 367.608C76.7084 368.718 76.7383 369.507 76.7383 369.839C76.7383 372.652 75.6859 375.113 79.1939 375.993C82.7017 376.87 87.0867 374.761 90.0685 375.816C93.0498 376.87 97.9609 376.694 100.943 376.168C103.924 375.639 106.204 372.827 104.451 372.652Z" fill="#17282F"/>
<path d="M104.45 372.652L104.504 372.115C104.18 372.088 103.327 371.843 102.279 371.46C99.1076 370.316 93.8359 367.935 91.4076 366.394C89.7691 365.356 88.7462 364.5 88.1397 363.912C87.8363 363.619 87.637 363.394 87.5169 363.246L87.3921 363.084L87.3685 363.05L87.3672 363.048C87.2168 362.806 86.9058 362.724 86.6558 362.859C86.6339 362.872 86.0766 363.172 85.4959 363.69C85.2055 363.949 84.907 364.265 84.6709 364.643C84.4355 365.019 84.259 365.468 84.2586 365.972L84.2712 366.206C84.4524 367.836 84.8104 369.089 84.8151 369.108L85.3323 368.959L85.3138 368.42C85.3135 368.42 85.1945 368.424 84.963 368.424C83.8446 368.427 80.2275 368.316 76.8372 367.1C76.6679 367.04 76.4813 367.068 76.3363 367.174C76.1921 367.282 76.111 367.453 76.1195 367.633C76.1707 368.738 76.2005 369.532 76.2002 369.839C76.2014 370.844 76.0539 371.841 76.0522 372.79C76.0526 373.577 76.1572 374.365 76.6271 375.048C77.0978 375.733 77.8934 376.224 79.0629 376.515C79.7505 376.687 80.4565 376.75 81.1659 376.75C83.5572 376.744 86.0266 376.045 88.0321 376.052C88.7184 376.052 89.3429 376.13 89.8888 376.325C91.564 376.914 93.7183 377.124 95.8397 377.126C97.733 377.126 99.5922 376.953 101.036 376.699C102.272 376.479 103.37 375.913 104.183 375.273C104.59 374.953 104.925 374.613 105.173 374.27C105.416 373.924 105.593 373.581 105.6 373.17C105.606 372.912 105.495 372.61 105.273 372.42C105.054 372.227 104.786 372.144 104.504 372.115L104.45 372.652L104.397 373.188L104.537 373.217L104.561 373.228L104.617 373.149L104.532 373.19L104.561 373.228L104.617 373.149L104.532 373.19L104.614 373.15L104.524 373.169L104.532 373.19L104.614 373.15L104.524 373.169L104.524 373.17C104.531 373.201 104.476 373.403 104.3 373.64C103.785 374.374 102.386 375.375 100.849 375.637C99.4792 375.879 97.6666 376.047 95.8397 376.047C93.7948 376.049 91.722 375.832 90.2473 375.308C89.5455 375.059 88.7982 374.974 88.0321 374.973C85.8043 374.981 83.3508 375.679 81.1659 375.672C80.5209 375.672 79.9031 375.614 79.3239 375.468C78.3014 375.209 77.795 374.843 77.5122 374.435C77.2281 374.027 77.1277 373.488 77.1281 372.79C77.126 371.957 77.2743 370.942 77.276 369.839C77.2756 369.481 77.2453 368.697 77.1941 367.583L76.6566 367.608L76.4758 368.116C80.0703 369.398 83.7762 369.502 84.963 369.503C85.208 369.503 85.3453 369.498 85.3508 369.498C85.516 369.492 85.6703 369.41 85.7673 369.276C85.8645 369.142 85.8951 368.97 85.8497 368.812C85.8497 368.811 85.8303 368.744 85.7959 368.609C85.6934 368.206 85.4681 367.238 85.3407 366.086L85.3345 365.972C85.3341 365.728 85.4214 365.474 85.5828 365.215C85.822 364.828 86.2238 364.46 86.5649 364.205C86.7352 364.078 86.8894 363.975 86.9992 363.907L87.1269 363.831L87.1659 363.808L86.9108 363.334L86.4549 363.619C86.5041 363.699 87.4459 365.162 90.8331 367.306C92.5494 368.391 95.4497 369.797 98.1646 370.971C99.5212 371.557 100.828 372.082 101.914 372.475C103.008 372.867 103.844 373.128 104.397 373.188L104.45 372.652Z" fill="#17282F"/>
<path d="M104.958 372.881C102 374.498 97.9361 375.098 95.5049 374.937C92.8741 374.761 87.9629 373.179 83.2279 374.233C80.6412 374.809 78.2692 374.231 76.644 373.589C76.8089 374.69 77.4119 375.546 79.1934 375.993C82.7013 376.87 87.0863 374.761 90.068 375.816C93.0494 376.87 97.9605 376.694 100.942 376.168C103.494 375.716 105.524 373.594 104.958 372.881Z" fill="white"/>
<path d="M104.958 372.881L104.701 372.408C102.172 373.796 98.6844 374.428 96.3171 374.423C96.0414 374.423 95.7816 374.415 95.5409 374.399H95.5413C94.6105 374.338 93.2959 374.075 91.78 373.824C90.2616 373.573 88.5334 373.334 86.7259 373.334C85.5429 373.334 84.3254 373.437 83.1113 373.707C82.4048 373.864 81.7152 373.931 81.052 373.931C79.4218 373.931 77.9522 373.526 76.8418 373.087C76.6632 373.016 76.4603 373.047 76.3098 373.167C76.1594 373.287 76.0841 373.478 76.1123 373.669C76.2031 374.291 76.4392 374.91 76.9264 375.411C77.4121 375.913 78.1102 376.276 79.0629 376.515C79.7505 376.687 80.4565 376.75 81.1659 376.75C83.5571 376.744 86.0266 376.045 88.0321 376.052C88.7184 376.052 89.3429 376.13 89.8888 376.325C91.5639 376.914 93.7182 377.124 95.8396 377.126C97.7329 377.126 99.5921 376.953 101.036 376.699C102.271 376.479 103.368 375.914 104.178 375.276C104.584 374.955 104.919 374.616 105.166 374.273C105.408 373.929 105.584 373.586 105.592 373.176C105.594 372.966 105.529 372.731 105.379 372.545C105.217 372.34 104.93 372.282 104.701 372.408L104.958 372.881L104.538 373.217L104.626 373.147L104.518 373.181L104.538 373.217L104.626 373.147L104.518 373.181L104.574 373.163L104.516 373.172L104.518 373.181L104.574 373.163L104.516 373.172V373.176C104.523 373.207 104.468 373.407 104.293 373.644C103.779 374.376 102.386 375.375 100.849 375.637C99.4792 375.879 97.6666 376.047 95.8396 376.047C93.7947 376.049 91.722 375.832 90.2473 375.308C89.5455 375.059 88.7982 374.974 88.0321 374.973C85.8043 374.981 83.3508 375.679 81.1659 375.672C80.5208 375.672 79.9031 375.614 79.3239 375.468C78.4952 375.261 78.001 374.973 77.6987 374.661C77.3978 374.347 77.2503 373.987 77.1764 373.509L76.6443 373.589L76.4472 374.09C77.6475 374.565 79.2441 375.009 81.052 375.009C81.7866 375.009 82.5557 374.936 83.3446 374.76C84.4658 374.51 85.6047 374.412 86.7259 374.412C88.4389 374.412 90.109 374.64 91.6047 374.887C93.103 375.134 94.418 375.402 95.4694 375.475H95.4699C95.7367 375.492 96.02 375.502 96.3171 375.502C98.8617 375.498 102.447 374.861 105.216 373.355L104.958 372.881L104.538 373.217L104.958 372.881Z" fill="#17282F"/>
<path d="M101.118 215.838C101.118 215.838 100.416 248.36 99.5394 259.261C98.6628 270.16 96.5576 298.815 94.6287 310.067C92.6992 321.317 89.7175 330.81 89.7175 330.81C89.7175 330.81 83.5784 331.866 78.6676 331.866C73.7565 331.866 71.8275 331.337 71.8275 331.337C71.8275 331.337 71.1257 322.548 72.0023 316.922C72.8798 311.296 74.8088 293.366 73.9318 284.048C73.055 274.73 73.7565 245.02 69.3715 235.879C64.9869 226.737 65.1622 223.045 68.4948 220.936C71.8275 218.826 101.118 215.838 101.118 215.838Z" fill="#17282F"/>
<path d="M101.118 215.838L100.58 215.826C100.58 215.831 100.536 217.858 100.457 221.076C100.219 230.729 99.6589 251.075 99.0032 259.217C98.1274 270.113 96.0186 298.784 94.0988 309.975C93.1372 315.58 91.913 320.752 90.9292 324.521C90.4371 326.405 90.0055 327.939 89.697 329.001C89.3886 330.062 89.2049 330.646 89.2045 330.648L89.7176 330.81L89.6264 330.279C89.6256 330.279 89.249 330.343 88.6009 330.442C86.6586 330.737 82.2962 331.327 78.6677 331.327C76.2315 331.327 74.5424 331.195 73.47 331.067C72.9336 331.002 72.5516 330.937 72.3066 330.891C72.1843 330.868 72.0965 330.848 72.041 330.835L71.9818 330.821L71.9691 330.818L71.8275 331.338L72.3638 331.295C72.3633 331.293 72.2978 330.472 72.2319 329.161C72.1659 327.851 72.0994 326.059 72.0994 324.135C72.099 321.733 72.2037 319.121 72.534 317.005C73.2594 312.347 74.692 299.412 74.6933 289.726C74.6933 287.627 74.6261 285.681 74.4676 283.998C74.0331 279.391 73.9868 269.617 73.5048 259.87C73.2632 254.995 72.9118 250.121 72.3441 245.88C71.7729 241.636 70.9988 238.036 69.8566 235.645C67.5745 230.897 66.5646 227.65 66.571 225.457C66.5722 224.455 66.7714 223.68 67.1354 223.035C67.5005 222.39 68.0415 221.861 68.7819 221.391C69.0812 221.195 69.8906 220.907 70.9854 220.634C74.8455 219.655 82.4164 218.583 88.9918 217.765C92.2816 217.355 95.3277 217.008 97.5504 216.762C99.7736 216.517 101.169 216.375 101.173 216.374L101.118 215.838L100.58 215.826L101.118 215.838L101.063 215.302C101.061 215.302 93.7348 216.049 85.9865 217.061C82.1122 217.567 78.1327 218.139 74.9034 218.718C73.2884 219.008 71.8612 219.299 70.7219 219.588C69.5766 219.883 68.7415 220.149 68.2078 220.48C67.3581 221.017 66.668 221.675 66.1998 222.502C65.7304 223.329 65.4943 224.312 65.4951 225.457C65.5018 227.969 66.584 231.301 68.887 236.113C69.9368 238.294 70.7193 241.835 71.2775 246.023C72.1201 252.312 72.4865 260.077 72.7222 267.141C72.9589 274.208 73.0644 280.562 73.3964 284.099C73.5502 285.733 73.6175 287.651 73.6175 289.726C73.6186 299.308 72.1877 312.249 71.4712 316.839C71.1269 319.05 71.024 321.699 71.0236 324.135C71.0236 328.031 71.2909 331.372 71.2913 331.381C71.3094 331.608 71.4666 331.798 71.686 331.858C71.7418 331.873 73.7183 332.405 78.6677 332.405C83.6486 332.403 89.7932 331.343 89.8084 331.342C90.0063 331.307 90.1702 331.164 90.2307 330.972C90.2345 330.958 93.2221 321.45 95.1586 310.158C97.0969 298.847 99.1977 270.208 100.076 259.304C100.955 248.363 101.655 215.856 101.656 215.85C101.659 215.695 101.596 215.546 101.483 215.442C101.37 215.337 101.217 215.286 101.063 215.302L101.118 215.838Z" fill="#17282F"/>
<path d="M63.759 329.932L47.4479 347.161C47.4479 347.161 43.5885 351.732 41.8353 360.346C40.0811 368.959 41.3087 373.003 39.9054 373.355C38.5026 373.705 37.275 373.53 34.6442 367.378C32.013 361.224 30.785 358.06 30.9603 353.489C31.1358 348.918 30.785 341.359 31.1358 340.48C31.4868 339.601 40.4321 338.898 40.4321 338.898L56.0421 320.263L63.759 329.932Z" fill="white"/>
<path d="M63.7588 329.932L63.3688 329.561L47.0573 346.789L47.0371 346.812C46.9972 346.86 43.0859 351.506 41.3077 360.237C40.4227 364.583 40.289 367.791 40.2012 369.927C40.1588 370.99 40.1218 371.791 40.0243 372.282C39.978 372.527 39.9146 372.686 39.8679 372.755L39.775 372.832H39.7755C39.5493 372.889 39.3531 372.922 39.1774 372.922C38.969 372.92 38.7862 372.883 38.5534 372.754C38.2075 372.563 37.7477 372.123 37.1821 371.241C36.6155 370.361 35.9452 369.052 35.1383 367.165C33.9061 364.283 32.9878 362.069 32.3835 360.085C31.7792 358.099 31.4825 356.346 31.4816 354.332C31.4816 354.064 31.4871 353.79 31.4981 353.511C31.538 352.464 31.5506 351.269 31.5506 350.035C31.5506 347.835 31.5102 345.51 31.5102 343.701C31.5102 342.875 31.5186 342.156 31.5431 341.613C31.5548 341.343 31.5707 341.116 31.5901 340.948L31.6194 340.747L31.6317 340.692L31.635 340.68L31.3661 340.573L31.5724 340.781L31.635 340.68L31.3661 340.573L31.5724 340.781L31.5341 340.742L31.5678 340.785L31.5724 340.781L31.5341 340.742L31.5678 340.785C31.5842 340.764 31.796 340.66 32.0901 340.577C33.1421 340.262 35.2694 339.966 37.0942 339.763C38.0095 339.66 38.8555 339.578 39.4721 339.522C40.0885 339.466 40.4731 339.436 40.4739 339.436C40.6172 339.424 40.7513 339.355 40.8438 339.245L56.032 321.114L63.339 330.269L63.7588 329.932L63.3688 329.561L63.7588 329.932L64.1791 329.595L56.4619 319.926C56.361 319.799 56.2097 319.726 56.0483 319.724C55.887 319.721 55.7335 319.791 55.6297 319.915L40.02 338.552L40.432 338.898L40.3899 338.361C40.3853 338.361 38.1445 338.536 35.849 338.824C34.7 338.968 33.5396 339.14 32.6243 339.335C32.1654 339.433 31.7695 339.535 31.4489 339.654C31.2879 339.714 31.1454 339.777 31.0114 339.861C30.8824 339.947 30.7373 340.046 30.6365 340.279C30.5689 340.457 30.5475 340.615 30.521 340.825C30.452 341.441 30.4348 342.447 30.4344 343.701C30.4344 345.525 30.4747 347.847 30.4747 350.035C30.4747 351.261 30.4621 352.444 30.4225 353.469C30.4117 353.762 30.4058 354.049 30.4058 354.332C30.4049 356.454 30.7256 358.339 31.3548 360.401C31.9834 362.462 32.9155 364.703 34.1494 367.59C35.2459 370.15 36.1016 371.703 36.877 372.664C37.2657 373.142 37.6401 373.476 38.0272 373.695C38.413 373.914 38.8122 374.003 39.1774 374C39.4871 374 39.7708 373.944 40.0356 373.877H40.036C40.342 373.806 40.6139 373.594 40.7706 373.342C41.0471 372.896 41.1186 372.375 41.1838 371.694C41.3564 369.666 41.2215 366.062 42.3622 360.453C43.227 356.203 44.6105 352.956 45.7734 350.777C46.3546 349.687 46.8812 348.864 47.2595 348.316C47.4485 348.042 47.6006 347.837 47.7045 347.702L47.8222 347.553L47.8583 347.509L47.4478 347.16L47.8378 347.531L64.1493 330.303C64.3345 330.107 64.3472 329.806 64.1791 329.595L63.7588 329.932Z" fill="#17282F"/>
<path d="M40.9577 345.93L40.102 338.925C38.5096 339.06 31.4472 339.701 31.1358 340.48C30.7854 341.359 31.1358 348.918 30.9602 353.488C30.7854 358.06 32.0129 361.224 34.6442 367.378C37.275 373.53 38.5025 373.705 39.9054 373.355C41.3086 373.003 40.081 368.959 41.8352 360.346C43.5885 351.732 47.4478 347.161 47.4478 347.161L47.5305 347.072C47.0191 346.862 46.2227 346.621 44.9917 346.457C42.3609 346.106 40.9577 345.93 40.9577 345.93Z" fill="#17282F"/>
<path d="M40.9576 345.93L41.4918 345.864L40.6357 338.859C40.6009 338.571 40.3445 338.363 40.0566 338.387C39.2552 338.455 37.0862 338.649 35.0657 338.926C34.0544 339.065 33.082 339.223 32.3213 339.401C31.9397 339.492 31.6128 339.585 31.3421 339.696C31.206 339.752 31.0837 339.81 30.9664 339.891C30.8521 339.973 30.7243 340.072 30.6365 340.279H30.6361C30.5689 340.457 30.5475 340.615 30.5213 340.826C30.452 341.442 30.4352 342.448 30.4348 343.702C30.4348 345.524 30.4752 347.844 30.4752 350.03C30.4752 351.257 30.4621 352.442 30.4225 353.467C30.4117 353.758 30.4058 354.044 30.4058 354.327C30.4049 356.45 30.7256 358.336 31.3544 360.398C31.983 362.461 32.9151 364.702 34.1494 367.59C35.2459 370.151 36.1016 371.703 36.877 372.664C37.2657 373.142 37.6401 373.476 38.0272 373.695C38.413 373.914 38.8122 374.003 39.1774 374C39.4876 374 39.7708 373.944 40.0356 373.877H40.036C40.342 373.806 40.6139 373.594 40.7706 373.342C41.0471 372.896 41.1186 372.375 41.1838 371.694C41.3564 369.666 41.2215 366.062 42.3622 360.453C43.227 356.203 44.6105 352.956 45.7734 350.777C46.3546 349.687 46.8812 348.864 47.2595 348.316C47.4485 348.042 47.6006 347.837 47.7045 347.702L47.8222 347.553L47.8583 347.509L47.4478 347.16L47.8394 347.53L47.9227 347.442C48.0433 347.312 48.0936 347.131 48.0563 346.958C48.0188 346.785 47.8978 346.64 47.7348 346.573C47.1742 346.343 46.3311 346.092 45.0628 345.922C42.4307 345.57 41.0257 345.395 41.0244 345.394L40.9576 345.93L41.4918 345.864L40.9576 345.93L40.8908 346.465C40.895 346.465 42.2912 346.64 44.9207 346.992C46.1138 347.151 46.8636 347.38 47.3263 347.571L47.5305 347.072L47.1388 346.703L47.0556 346.791L47.0371 346.812C46.9972 346.86 43.0859 351.506 41.3077 360.237C40.4227 364.583 40.289 367.791 40.2012 369.927C40.1588 370.99 40.1218 371.791 40.0243 372.282C39.978 372.527 39.9146 372.686 39.8679 372.755L39.775 372.832H39.7755C39.5493 372.889 39.3531 372.922 39.1774 372.922C38.969 372.92 38.7862 372.883 38.5534 372.754C38.2075 372.563 37.7477 372.123 37.1821 371.241C36.6155 370.361 35.9452 369.052 35.1383 367.165C33.9057 364.282 32.9874 362.069 32.3831 360.083C31.7788 358.096 31.4829 356.342 31.4816 354.327C31.4816 354.06 31.4871 353.787 31.4981 353.51C31.538 352.462 31.5506 351.264 31.551 350.03C31.5506 347.832 31.5102 345.509 31.5107 343.702C31.5102 342.876 31.5191 342.156 31.5431 341.614C31.5548 341.343 31.5707 341.116 31.5901 340.948L31.6194 340.747L31.6321 340.692L31.6355 340.679L31.635 340.68L31.3551 340.568L31.5766 340.776L31.635 340.68L31.3551 340.568L31.5766 340.776L31.4951 340.7L31.5669 340.785L31.5766 340.776L31.4951 340.7L31.5669 340.785C31.5657 340.779 31.7241 340.69 31.9569 340.618C32.7925 340.342 34.5412 340.068 36.2053 339.866C37.8755 339.661 39.4871 339.518 40.1474 339.462L40.102 338.925L39.5678 338.99L40.4239 345.994C40.4538 346.24 40.6458 346.433 40.8908 346.465L40.9576 345.93Z" fill="#17282F"/>
<path d="M39.388 373.451C37.6414 370.667 34.8379 363.904 33.7666 357.005C32.8879 351.341 32.9076 343.697 32.99 339.81C31.9704 340.013 31.2321 340.24 31.1358 340.48C30.7854 341.359 31.1358 348.918 30.9602 353.488C30.7854 358.06 32.0129 361.224 34.6442 367.378C36.948 372.767 38.1764 373.569 39.388 373.451Z" fill="white"/>
<path d="M39.3879 373.451L39.8436 373.164C39.0022 371.824 37.8709 369.457 36.8294 366.586C35.7864 363.713 34.8265 360.327 34.2982 356.921C33.6448 352.716 33.4905 347.352 33.4909 343.308C33.4909 341.974 33.5077 340.781 33.5279 339.821C33.5317 339.658 33.4611 339.502 33.3359 339.397C33.2106 339.292 33.0454 339.249 32.8853 339.281C32.3617 339.386 31.9057 339.495 31.5413 339.621C31.3581 339.685 31.1979 339.751 31.05 339.837C30.9071 339.928 30.7487 340.025 30.6365 340.279H30.6361C30.5689 340.457 30.5475 340.615 30.5213 340.826C30.452 341.442 30.4352 342.448 30.4348 343.702C30.4348 345.524 30.4752 347.844 30.4752 350.03C30.4752 351.257 30.4621 352.442 30.4225 353.467C30.4117 353.758 30.4058 354.044 30.4058 354.327C30.4049 356.45 30.7256 358.336 31.3544 360.398C31.983 362.461 32.9151 364.702 34.1494 367.59C35.2459 370.151 36.1012 371.703 36.877 372.663C37.2657 373.142 37.6401 373.478 38.0272 373.695C38.413 373.914 38.8122 374.003 39.1771 374L39.4401 373.987C39.6258 373.969 39.7885 373.856 39.8709 373.688C39.9532 373.521 39.9432 373.322 39.8436 373.164L39.3879 373.451L39.3363 372.914L39.1771 372.922C38.969 372.92 38.7862 372.883 38.5534 372.754C38.2071 372.563 37.7477 372.124 37.1821 371.242C36.6155 370.362 35.9448 369.053 35.1383 367.165C33.9057 364.282 32.9874 362.069 32.3831 360.083C31.7788 358.096 31.4829 356.342 31.4816 354.327C31.4816 354.06 31.4871 353.787 31.4981 353.51C31.538 352.462 31.5506 351.264 31.551 350.03C31.5506 347.832 31.5102 345.509 31.5107 343.702C31.5102 342.876 31.5191 342.156 31.5431 341.614C31.5548 341.343 31.5707 341.116 31.5901 340.948L31.6194 340.747L31.6321 340.692L31.6355 340.679L31.635 340.68L31.3753 340.575L31.5695 340.783L31.635 340.68L31.3753 340.575L31.5695 340.783L31.5603 340.773L31.5687 340.784L31.5695 340.783L31.5603 340.773L31.5687 340.784C31.593 340.76 31.7876 340.665 32.0579 340.588C32.3306 340.505 32.6878 340.419 33.095 340.338L32.99 339.81L32.4525 339.798C32.4318 340.766 32.415 341.965 32.415 343.308C32.4159 347.382 32.5667 352.775 33.235 357.087C33.7775 360.582 34.7555 364.026 35.8183 366.954C36.8832 369.885 38.0272 372.292 38.9324 373.738L39.3879 373.451L39.3363 372.914L39.3879 373.451Z" fill="#17282F"/>
<path d="M47.4475 218.826C47.4475 218.826 44.1148 229.199 47.4475 237.637C50.7792 246.075 72.002 288.619 72.002 288.619L73.0547 291.608L56.5675 316.747C56.5675 316.747 57.7951 321.317 61.4787 325.185C65.1618 329.052 66.3894 329.932 66.3894 329.932C66.3894 329.932 88.1382 305.143 94.1021 298.64C100.065 292.135 98.8377 283.345 97.6097 278.774C96.3816 274.203 79.544 224.803 79.544 224.803C79.544 224.803 58.3217 225.331 47.4475 218.826Z" fill="#17282F"/>
<path d="M47.4476 218.826L46.9353 218.661C46.9269 218.692 45.4299 223.342 45.4282 229.01C45.4287 231.844 45.8031 234.937 46.947 237.835C48.634 242.103 54.7655 254.83 60.4916 266.529C66.2147 278.222 71.5204 288.859 71.5208 288.86L72.0021 288.619L71.4948 288.798L72.4589 291.534L56.1179 316.45C56.0334 316.579 56.0083 316.738 56.0482 316.886C56.0637 316.932 57.3044 321.576 61.0896 325.557C64.7871 329.439 66.0302 330.337 66.0769 330.37C66.3013 330.532 66.6115 330.495 66.7934 330.288C66.7947 330.287 67.1334 329.901 67.7398 329.21C71.9819 324.379 89.2902 304.683 94.4982 299.004C98.1128 295.063 99.1647 290.304 99.1626 286.142C99.1622 283.208 98.6453 280.555 98.1292 278.634C97.8111 277.452 96.5326 273.523 94.7793 268.243C89.5243 252.417 80.0534 224.63 80.0534 224.63C79.9773 224.406 79.7664 224.259 79.531 224.265C79.5298 224.265 79.1272 224.275 78.3933 224.275C76.1274 224.275 70.7501 224.178 64.7896 223.385C58.8303 222.596 52.2844 221.097 47.7228 218.363C47.5829 218.279 47.4106 218.264 47.2576 218.322C47.1046 218.379 46.9853 218.506 46.9353 218.661L47.4476 218.826L47.1719 219.29C51.9696 222.154 58.6147 223.648 64.648 224.454C70.6799 225.255 76.0963 225.353 78.3933 225.353C79.1372 225.353 79.5537 225.342 79.5575 225.342L79.5441 224.803L79.0351 224.978C79.036 224.98 79.2981 225.75 79.7609 227.11C81.3806 231.868 85.447 243.828 89.2424 255.096C91.1399 260.731 92.9697 266.193 94.3922 270.495C95.8131 274.793 96.8318 277.95 97.0902 278.914C97.5891 280.77 98.0867 283.335 98.0867 286.142C98.0847 290.133 97.0895 294.583 93.7059 298.275C87.7315 304.79 65.9878 329.573 65.9856 329.575L66.3895 329.932L66.7021 329.493L66.6963 329.489C66.5875 329.408 65.3077 328.426 61.868 324.812C60.0785 322.935 58.8774 320.873 58.128 319.285C57.7536 318.491 57.4914 317.815 57.3241 317.342C57.2405 317.104 57.1803 316.918 57.1417 316.791L57.0992 316.649L57.087 316.606L56.5676 316.746L57.0173 317.043L73.5045 291.903C73.5974 291.762 73.6183 291.587 73.5621 291.427L72.5093 288.439L72.4833 288.378C72.4824 288.376 72.1517 287.712 71.5651 286.534C69.5117 282.405 64.3319 271.967 59.3018 261.641C54.2743 251.32 49.3866 241.084 47.9477 237.438C46.8697 234.711 46.5037 231.749 46.5041 229.01C46.5041 226.271 46.8689 223.757 47.2341 221.934C47.4169 221.022 47.5993 220.283 47.7354 219.774C47.8035 219.518 47.8602 219.321 47.8994 219.188C47.9389 219.056 47.9594 218.992 47.9594 218.992L47.4476 218.826L47.1719 219.29L47.4476 218.826Z" fill="#17282F"/>
<path d="M83.6816 240.231L95.8687 276.877C95.9624 277.16 96.2671 277.313 96.5491 277.219C96.8306 277.124 96.9832 276.819 96.889 276.536L84.7024 239.89C84.6083 239.608 84.3036 239.455 84.0216 239.549C83.74 239.644 83.5875 239.949 83.6816 240.231Z" fill="white"/>
<path d="M81.3447 233.204L82.5202 236.741C82.6143 237.023 82.919 237.175 83.2006 237.081C83.4826 236.988 83.6347 236.681 83.541 236.399L82.3651 232.863C82.2714 232.58 81.9667 232.428 81.6847 232.522C81.4031 232.616 81.2506 232.921 81.3447 233.204Z" fill="white"/>
<path d="M93.6936 298.288L73.9599 321.336C73.7662 321.561 73.7923 321.902 74.0179 322.096C74.2432 322.289 74.5827 322.263 74.7761 322.038L94.5102 298.991C94.7036 298.765 94.678 298.425 94.4522 298.231C94.227 298.037 93.8874 298.063 93.6936 298.288Z" fill="white"/>
<path d="M47.6228 213.201C47.6228 213.201 44.6411 217.947 46.3948 220.759C48.1485 223.573 60.0756 227.265 70.073 227.265C80.0706 227.265 101.469 220.408 101.994 216.54C102.521 212.673 102.345 210.739 101.994 210.212C101.644 209.685 98.1359 215.486 76.2118 215.662C54.2877 215.838 47.6228 213.201 47.6228 213.201Z" fill="#6382A5"/>
<path d="M47.6227 213.201L47.1676 212.913C47.1579 212.93 46.7002 213.659 46.2388 214.727C45.7791 215.798 45.3071 217.205 45.3042 218.621C45.3042 219.453 45.4731 220.299 45.9383 221.045C46.5007 221.922 47.6324 222.677 49.1932 223.448C53.8673 225.72 62.4739 227.798 70.073 227.804C75.1833 227.8 83.0439 226.075 89.7538 223.865C93.107 222.759 96.164 221.533 98.4427 220.324C99.5823 219.719 100.528 219.119 101.23 218.523C101.924 217.922 102.417 217.332 102.527 216.613C102.768 214.849 102.865 213.476 102.865 212.437C102.864 211.805 102.829 211.296 102.764 210.889C102.695 210.481 102.612 210.178 102.442 209.913C102.394 209.839 102.314 209.759 102.215 209.708C102.117 209.657 102.012 209.638 101.93 209.639C101.702 209.649 101.609 209.717 101.506 209.768C101.324 209.87 101.142 210.005 100.874 210.186C99.9535 210.811 98.0896 211.994 94.2887 213.06C90.4921 214.123 84.772 215.054 76.2071 215.123C75.501 215.128 74.811 215.132 74.1361 215.132C64.0221 215.132 57.4198 214.515 53.3576 213.902C51.3265 213.596 49.9308 213.291 49.0482 213.064C48.607 212.951 48.2944 212.857 48.0947 212.794C47.995 212.761 47.9232 212.737 47.8782 212.72L47.8303 212.703L47.8202 212.7C47.5803 212.604 47.305 212.694 47.1676 212.913L47.6227 213.201L47.4253 213.703C47.5185 213.738 53.8212 216.209 74.1361 216.21C74.814 216.21 75.5069 216.207 76.2159 216.201C86.746 216.116 93.0805 214.74 96.8831 213.364C98.7835 212.677 100.051 211.987 100.881 211.469C101.295 211.211 101.6 210.994 101.808 210.853C101.911 210.783 101.99 210.731 102.03 210.709L102.051 210.697H102.052L101.93 210.394V210.718L102.052 210.697L101.93 210.394V210.718V210.258L101.719 210.665L101.93 210.718V210.258L101.719 210.665L101.932 210.254L101.547 210.511L101.719 210.665L101.932 210.254L101.547 210.511C101.569 210.537 101.653 210.735 101.702 211.061C101.754 211.388 101.789 211.847 101.789 212.437C101.789 213.409 101.697 214.74 101.461 216.468C101.441 216.715 101.15 217.186 100.533 217.7C99.4685 218.611 97.545 219.666 95.152 220.694C87.9719 223.79 76.4929 226.734 70.073 226.726C65.14 226.726 59.6946 225.811 55.2904 224.549C53.0882 223.918 51.1454 223.201 49.6639 222.478C48.1826 221.766 47.1659 221.004 46.8508 220.474C46.5192 219.943 46.3805 219.311 46.3801 218.621C46.3771 217.451 46.7957 216.148 47.2264 215.155C47.4408 214.658 47.6559 214.238 47.8165 213.943C47.8967 213.795 47.9635 213.68 48.0094 213.602L48.0779 213.488L47.6227 213.201L47.4253 213.703L47.6227 213.201Z" fill="#17282F"/>
<path d="M82.1752 120.73C82.1752 120.73 93.7512 131.101 102.872 132.86L103.047 141.123C103.047 141.123 113.045 145.341 113.045 147.1C113.045 148.858 114.448 180.325 114.448 186.831C114.448 193.335 111.115 203.707 108.485 203.004C105.854 202.3 103.223 200.191 103.223 200.191C103.223 200.191 105.152 211.267 102.872 213.727C100.592 216.189 94.2778 218.65 78.3167 220.936C62.3562 223.221 53.5861 220.056 49.7278 217.068C45.869 214.079 46.5703 212.321 47.7979 208.629C49.0263 204.939 54.6389 176.283 54.6389 171.184C54.6389 166.086 49.5521 138.309 52.0081 135.848C54.4633 133.386 60.9529 133.211 64.6364 133.211C68.3192 133.211 80.9476 132.156 80.9476 132.156L82.1752 120.73Z" fill="#6382A5"/>
<path d="M82.175 120.73L81.8166 121.131C81.8274 121.141 84.7344 123.746 88.7962 126.578C92.863 129.408 98.065 132.476 102.77 133.39L102.872 132.86L102.334 132.871L102.51 141.133C102.514 141.347 102.643 141.537 102.839 141.62C102.84 141.62 103.456 141.88 104.389 142.301C105.786 142.931 107.885 143.921 109.617 144.904C110.48 145.396 111.254 145.888 111.786 146.316C112.051 146.528 112.256 146.727 112.375 146.88L112.491 147.06L112.506 147.101L112.51 147.1H112.507L112.506 147.101L112.51 147.1H112.507C112.507 147.572 112.595 149.851 112.727 153.156C113.122 163.049 113.91 181.984 113.91 186.831C113.912 189.89 113.141 193.913 112.056 197.121C111.514 198.725 110.891 200.13 110.272 201.1C109.963 201.584 109.655 201.957 109.382 202.189C109.107 202.424 108.888 202.501 108.743 202.498L108.622 202.482C107.392 202.155 106.11 201.475 105.151 200.875C104.671 200.576 104.27 200.297 103.99 200.095C103.851 199.993 103.741 199.911 103.667 199.854L103.559 199.77C103.384 199.63 103.142 199.613 102.949 199.727C102.756 199.841 102.654 200.062 102.693 200.283C102.693 200.285 102.739 200.55 102.81 201.016C103.023 202.413 103.448 205.584 103.447 208.428C103.447 209.548 103.38 210.617 103.217 211.492C103.059 212.368 102.785 213.039 102.478 213.361C101.451 214.477 99.3805 215.691 95.5641 216.883C91.7498 218.079 86.204 219.263 78.2405 220.402C74.446 220.945 71.065 221.178 68.0665 221.178C58.5295 221.179 52.8657 218.819 50.0563 216.641C48.9981 215.822 48.3193 215.115 47.9158 214.475C47.5137 213.833 47.3674 213.266 47.3645 212.621C47.359 211.625 47.7671 210.416 48.3084 208.799C48.6341 207.816 49.2086 205.347 49.9113 202.051C50.9611 197.115 52.2752 190.379 53.328 184.393C53.8541 181.399 54.3152 178.594 54.6451 176.293C54.9749 173.988 55.1755 172.205 55.1766 171.184C55.1755 170.095 54.9665 168.154 54.6568 165.669C53.7264 158.243 51.873 146.058 51.876 139.803C51.8756 138.801 51.9243 137.953 52.0251 137.326C52.1159 136.697 52.3017 136.296 52.3882 136.23C53.4431 135.152 55.5957 134.477 57.9395 134.14C60.2824 133.795 62.804 133.75 64.6363 133.75C66.5174 133.75 70.5876 133.486 74.2119 133.221C77.8324 132.957 80.9911 132.694 80.992 132.694C81.2496 132.673 81.4546 132.472 81.4824 132.214L82.7099 120.787L82.175 120.73L81.8166 121.131L82.175 120.73L81.6404 120.671L80.4129 132.099L80.9475 132.156L80.9028 131.619C80.9008 131.619 80.1149 131.685 78.8743 131.784C75.1592 132.08 67.3469 132.673 64.6363 132.671C62.7846 132.673 60.2198 132.715 57.7836 133.074C55.3477 133.44 53.0279 134.083 51.6276 135.468C51.2363 135.881 51.0872 136.435 50.9627 137.155C50.848 137.875 50.8006 138.765 50.8001 139.803C50.8013 144.091 51.6297 150.91 52.4551 157.193C52.8677 160.332 53.2804 163.335 53.5893 165.804C53.8983 168.268 54.1021 170.22 54.1008 171.184C54.1034 172.379 53.7557 175.136 53.2111 178.583C52.395 183.762 51.1401 190.557 49.9747 196.398C49.3923 199.318 48.8316 202 48.3605 204.122C47.8907 206.24 47.5023 207.817 47.2875 208.459C46.7572 210.065 46.2941 211.342 46.2886 212.621C46.2857 213.445 46.5025 214.259 47.0073 215.052C47.5107 215.847 48.2823 216.629 49.3985 217.494C52.4605 219.863 58.3535 222.255 68.0665 222.256C71.1205 222.256 74.5519 222.019 78.3926 221.469C86.3906 220.324 91.9817 219.134 95.8851 217.912C99.786 216.687 102.013 215.44 103.266 214.094C103.806 213.501 104.089 212.664 104.275 211.689C104.456 210.714 104.523 209.591 104.523 208.428C104.521 204.5 103.755 200.114 103.753 200.098L103.223 200.191L102.887 200.612C102.917 200.629 105.556 202.77 108.346 203.525C108.476 203.56 108.61 203.577 108.743 203.577C109.244 203.575 109.689 203.342 110.078 203.011C110.761 202.423 111.362 201.485 111.934 200.308C113.632 196.78 114.98 191.073 114.986 186.831C114.985 183.552 114.634 174.067 114.284 165.163C114.108 160.713 113.933 156.411 113.802 153.113C113.67 149.821 113.582 147.505 113.583 147.1C113.566 146.616 113.307 146.293 113.002 145.963C112.451 145.397 111.593 144.817 110.586 144.221C107.575 142.447 103.267 140.631 103.256 140.625L103.047 141.123L103.585 141.111L103.41 132.848C103.404 132.595 103.222 132.378 102.974 132.331C98.5584 131.485 93.4119 128.487 89.4106 125.692C87.4076 124.296 85.6855 122.952 84.4659 121.959C83.8556 121.462 83.3715 121.053 83.0403 120.769C82.7092 120.485 82.5344 120.327 82.5339 120.327C82.3826 120.192 82.1713 120.153 81.9821 120.226C81.7934 120.299 81.6618 120.47 81.6404 120.671L82.175 120.73Z" fill="#17282F"/>
<path d="M103.737 188.334C103.737 188.331 103.737 187.14 103.767 185.231C103.811 182.369 103.921 177.903 104.196 173.483C104.469 169.067 104.915 164.681 105.603 162.045C105.678 161.757 105.506 161.463 105.218 161.387C104.931 161.312 104.637 161.484 104.562 161.772C103.599 165.488 103.136 172.092 102.897 177.813C102.662 183.527 102.662 188.33 102.662 188.334C102.662 188.632 102.902 188.874 103.2 188.874C103.497 188.874 103.737 188.632 103.737 188.334Z" fill="#17282F"/>
<path d="M129.707 172.239C129.707 172.239 129.005 170.481 127.777 168.723C126.55 166.965 123.393 168.196 122.867 170.305C122.341 172.414 127.602 172.942 129.707 172.239Z" fill="white"/>
<path d="M129.707 172.239L130.207 172.039C130.197 172.016 129.486 170.231 128.218 168.414C127.702 167.666 126.875 167.337 126.076 167.344C125.271 167.346 124.463 167.64 123.785 168.13C123.111 168.621 122.559 169.32 122.345 170.175C122.311 170.314 122.293 170.454 122.293 170.593C122.289 171.1 122.543 171.545 122.884 171.854C123.402 172.324 124.117 172.601 124.915 172.794C125.714 172.983 126.598 173.071 127.442 173.071C128.354 173.07 129.209 172.971 129.877 172.751C130.017 172.703 130.133 172.6 130.195 172.466C130.257 172.331 130.261 172.176 130.207 172.039L129.707 172.239L129.537 171.727C129.047 171.893 128.269 171.995 127.442 171.993C126.421 171.995 125.31 171.843 124.513 171.554C124.115 171.411 123.799 171.234 123.614 171.06C123.425 170.881 123.372 170.75 123.368 170.593L123.389 170.436C123.524 169.882 123.908 169.371 124.417 169.003C124.922 168.634 125.543 168.42 126.076 168.422C126.615 168.429 127.035 168.607 127.337 169.032C127.93 169.881 128.401 170.739 128.722 171.381C128.882 171.703 129.005 171.969 129.087 172.156L129.179 172.369L129.208 172.439L129.707 172.239L129.537 171.727L129.707 172.239Z" fill="#17282F"/>
<path d="M133.215 160.812C133.215 160.812 131.987 162.394 130.409 165.558C128.829 168.723 125.673 172.767 125.673 172.767L119.885 170.305C119.885 170.305 121.814 167.141 122.166 165.735C122.516 164.328 121.639 162.746 121.639 162.746C121.639 162.746 126.9 162.043 128.829 161.34C130.76 160.637 132.163 159.405 133.215 160.812Z" fill="white"/>
<path d="M133.215 160.812L132.79 160.481C132.771 160.505 131.523 162.117 129.927 165.318C129.161 166.856 127.987 168.646 127.009 170.039C126.52 170.737 126.078 171.337 125.761 171.762C125.443 172.187 125.25 172.434 125.25 172.434L125.673 172.767L125.884 172.27L120.096 169.809L119.885 170.305L120.344 170.587C120.347 170.581 120.832 169.785 121.366 168.805C121.9 167.817 122.477 166.683 122.687 165.866C122.757 165.581 122.786 165.297 122.786 165.024C122.777 163.663 122.125 162.525 122.11 162.484L121.639 162.746L121.71 163.281C121.714 163.28 123.034 163.104 124.601 162.838C126.173 162.57 127.968 162.225 129.013 161.847C129.693 161.599 130.291 161.298 130.807 161.071C131.32 160.842 131.75 160.702 132.039 160.707C132.185 160.708 132.296 160.733 132.409 160.792C132.522 160.851 132.647 160.952 132.784 161.136L133.215 160.812L132.79 160.481L133.215 160.812L133.645 160.489C133.433 160.204 133.187 159.982 132.908 159.837C132.63 159.69 132.328 159.627 132.039 159.628C131.458 159.633 130.925 159.845 130.374 160.083C129.823 160.327 129.252 160.612 128.645 160.833C127.762 161.158 125.962 161.516 124.422 161.774C123.648 161.906 122.934 162.015 122.413 162.091C121.893 162.168 121.568 162.211 121.568 162.211C121.392 162.235 121.238 162.345 121.158 162.504C121.079 162.663 121.082 162.852 121.169 163.008L121.171 163.013C121.223 163.099 121.718 164.09 121.71 165.024C121.71 165.224 121.689 165.419 121.643 165.604C121.502 166.192 120.939 167.343 120.422 168.289C120.162 168.766 119.913 169.201 119.728 169.516C119.544 169.831 119.426 170.024 119.426 170.024C119.345 170.157 119.325 170.321 119.373 170.47C119.421 170.618 119.532 170.741 119.675 170.801L125.463 173.263C125.687 173.358 125.947 173.291 126.097 173.099C126.106 173.084 129.268 169.044 130.89 165.8C131.67 164.235 132.363 163.065 132.856 162.289C133.104 161.9 133.302 161.611 133.437 161.421L133.591 161.208L133.64 161.143C133.788 160.952 133.79 160.683 133.645 160.489L133.215 160.812Z" fill="#17282F"/>
<path d="M126.023 138.309L114.798 163.976H128.129L139.879 138.837L126.023 138.309Z" fill="white"/>
<path d="M126.023 138.309L125.531 138.093L114.305 163.759C114.233 163.927 114.248 164.119 114.348 164.272C114.447 164.424 114.617 164.515 114.798 164.515H128.129C128.338 164.515 128.527 164.395 128.615 164.205L140.367 139.065C140.443 138.902 140.432 138.71 140.339 138.556C140.245 138.402 140.08 138.305 139.9 138.298L126.044 137.771C125.823 137.762 125.619 137.891 125.531 138.093L126.023 138.309L126.003 138.848L139.049 139.344L127.787 163.437H115.621L126.516 138.526L126.023 138.309L126.003 138.848L126.023 138.309Z" fill="#17282F"/>
<path d="M121.908 163.231C121.908 163.231 124.402 166.389 126.109 167.046C127.816 167.704 131.491 166.125 132.016 161.651C132.541 157.177 121.908 163.231 121.908 163.231Z" fill="white"/>
<path d="M121.908 163.231L121.487 163.565C121.493 163.574 122.125 164.374 122.981 165.266C123.848 166.158 124.894 167.143 125.916 167.55C126.235 167.673 126.586 167.728 126.954 167.729C128.043 167.725 129.304 167.243 130.378 166.253C131.449 165.262 132.314 163.748 132.551 161.715C132.566 161.588 132.573 161.466 132.573 161.346C132.582 160.747 132.35 160.198 131.919 159.88C131.494 159.56 130.977 159.467 130.432 159.464C129.619 159.467 128.694 159.684 127.73 159.995C124.853 160.93 121.659 162.755 121.643 162.762C121.505 162.84 121.41 162.972 121.38 163.128C121.35 163.283 121.389 163.441 121.487 163.565L121.908 163.231L122.174 163.7C122.174 163.699 122.258 163.652 122.416 163.565C122.968 163.261 124.401 162.496 125.991 161.812C127.574 161.125 129.348 160.534 130.432 160.543C130.849 160.541 131.132 160.629 131.268 160.738C131.4 160.847 131.488 160.97 131.498 161.346L131.482 161.589C131.269 163.384 130.53 164.64 129.647 165.46C128.765 166.282 127.719 166.654 126.954 166.651C126.697 166.651 126.474 166.61 126.302 166.543C125.617 166.292 124.564 165.37 123.757 164.518C123.348 164.093 122.99 163.685 122.734 163.384C122.607 163.234 122.504 163.111 122.434 163.026L122.33 162.896L121.908 163.231L122.174 163.7L121.908 163.231Z" fill="#17282F"/>
<path d="M134.721 155.454C134.721 155.454 138.505 150.6 137.294 149.236C136.084 147.871 127.306 147.719 126.701 149.236C126.096 150.752 127.609 151.055 129.122 151.207C130.636 151.36 133.058 151.36 133.058 151.36C133.058 151.36 133.208 152.573 132.452 154.09C132.452 154.09 128.82 154.057 124.583 154.09C116.526 154.151 117.622 156.061 119.135 156.516C120.649 156.971 125.03 157.177 126.241 157.177C127.451 157.177 129.576 157.729 129.576 157.729C129.576 157.729 121.916 157.533 118.888 157.836C115.862 158.139 117.774 158.337 117.774 158.792C117.774 159.247 117.707 160.467 120.727 160.73C122.385 160.875 123.675 160.763 123.675 160.763C123.675 160.763 119.164 160.907 119.021 161.916C118.888 162.837 120.346 163.645 122.616 163.645C124.885 163.645 130.334 164.555 131.846 163.038C133.36 161.522 133.814 160.763 133.814 158.792C133.814 156.819 134.721 155.454 134.721 155.454Z" fill="white"/>
<path d="M134.721 155.454L135.145 155.786C135.152 155.776 135.864 154.864 136.584 153.702C136.944 153.119 137.307 152.476 137.586 151.839C137.862 151.201 138.067 150.579 138.071 149.978C138.072 149.597 137.976 149.194 137.695 148.877C137.429 148.586 137.083 148.418 136.67 148.265C135.437 147.824 133.486 147.619 131.58 147.615C130.376 147.615 129.206 147.702 128.263 147.889C127.791 147.984 127.377 148.103 127.027 148.268C126.685 148.435 126.369 148.642 126.202 149.036C126.089 149.318 126.027 149.59 126.027 149.857C126.022 150.221 126.158 150.569 126.376 150.817C126.707 151.193 127.149 151.375 127.61 151.504C128.074 151.63 128.577 151.695 129.068 151.744C130.63 151.9 133.048 151.898 133.057 151.899V151.359L132.523 151.426L132.728 151.4L132.523 151.423V151.426L132.728 151.4L132.523 151.423C132.523 151.427 132.531 151.503 132.531 151.636C132.531 152.015 132.465 152.858 131.971 153.848L132.452 154.09L132.457 153.551C132.456 153.551 130.84 153.536 128.505 153.536C127.339 153.536 125.992 153.539 124.578 153.551C122.017 153.571 120.356 153.771 119.28 154.075C118.741 154.229 118.344 154.406 118.043 154.639C117.747 154.864 117.528 155.204 117.532 155.577C117.538 156.017 117.787 156.33 118.047 156.549C118.316 156.771 118.639 156.929 118.98 157.033C119.836 157.286 121.305 157.443 122.76 157.556C124.212 157.665 125.61 157.716 126.241 157.716C126.769 157.715 127.591 157.847 128.256 157.982C128.589 158.05 128.887 158.118 129.101 158.168C129.314 158.219 129.441 158.251 129.441 158.251L129.576 157.729L129.59 157.19C129.588 157.19 127.139 157.128 124.458 157.128C122.39 157.128 120.195 157.164 118.834 157.299C118.155 157.368 117.717 157.43 117.41 157.5C117.255 157.537 117.135 157.572 117.002 157.641L116.785 157.813C116.709 157.899 116.638 158.053 116.64 158.207C116.643 158.405 116.727 158.533 116.785 158.605C116.893 158.733 116.973 158.778 117.046 158.828C117.154 158.898 117.25 158.955 117.29 158.988L117.305 159.002L117.427 158.878L117.277 158.96L117.305 159.002L117.427 158.878L117.277 158.96L117.583 158.792H117.236L117.277 158.96L117.583 158.792H117.236L117.235 158.852C117.228 159.12 117.262 159.752 117.785 160.265C118.303 160.775 119.17 161.135 120.68 161.269C121.348 161.326 121.956 161.344 122.449 161.344C123.216 161.344 123.709 161.301 123.721 161.3C124.013 161.275 124.229 161.024 124.212 160.732C124.194 160.438 123.949 160.215 123.658 160.224C123.647 160.225 122.507 160.26 121.326 160.427C120.733 160.512 120.133 160.626 119.631 160.802C119.379 160.89 119.149 160.992 118.944 161.141C118.745 161.286 118.538 161.508 118.488 161.839V161.838L118.474 162.03C118.473 162.4 118.631 162.742 118.865 163.006C119.217 163.405 119.728 163.681 120.361 163.879C120.994 164.074 121.754 164.183 122.616 164.184C123.79 164.182 125.996 164.454 128.013 164.455C128.856 164.454 129.672 164.408 130.394 164.264C131.113 164.118 131.756 163.884 132.227 163.42C132.993 162.65 133.531 162.041 133.882 161.32C134.231 160.6 134.353 159.814 134.352 158.792C134.351 157.889 134.56 157.119 134.769 156.578C134.873 156.308 134.977 156.096 135.053 155.953L135.142 155.796L135.165 155.759L135.169 155.754L134.721 155.454L135.145 155.786L134.721 155.454L134.273 155.155C134.244 155.205 133.28 156.651 133.276 158.792C133.275 159.742 133.168 160.321 132.913 160.85C132.658 161.382 132.213 161.91 131.466 162.656C131.249 162.882 130.797 163.088 130.184 163.206C129.572 163.329 128.814 163.377 128.013 163.377C126.079 163.378 123.918 163.108 122.616 163.106C121.59 163.107 120.756 162.926 120.226 162.676C119.961 162.553 119.776 162.413 119.674 162.295C119.571 162.174 119.551 162.097 119.55 162.03L119.553 161.992V161.991L119.42 161.973L119.532 162.054L119.553 161.991L119.42 161.973L119.532 162.054L119.573 162.017C119.687 161.923 120.038 161.78 120.463 161.682C121.105 161.526 121.921 161.428 122.569 161.373C122.893 161.345 123.176 161.327 123.376 161.316C123.577 161.305 123.692 161.302 123.692 161.302L123.675 160.763L123.629 160.226C123.627 160.226 123.521 160.235 123.317 160.245C123.111 160.255 122.813 160.266 122.449 160.266C121.981 160.266 121.404 160.248 120.773 160.193C119.39 160.075 118.78 159.743 118.545 159.5C118.314 159.26 118.317 159.078 118.311 158.852L118.312 158.792C118.306 158.504 118.156 158.328 118.056 158.229C117.894 158.077 117.747 158 117.655 157.94L117.604 157.905L117.592 157.897L117.422 158.099L117.637 157.948L117.592 157.897L117.422 158.099L117.637 157.948L117.268 158.207H117.716C117.714 158.074 117.664 157.987 117.637 157.948L117.268 158.207H117.716H117.251L117.608 158.509C117.659 158.454 117.719 158.331 117.716 158.207H117.251L117.608 158.509L117.34 158.283L117.517 158.588L117.608 158.509L117.34 158.283L117.517 158.588L117.457 158.484L117.508 158.593L117.517 158.588L117.457 158.484L117.508 158.593C117.509 158.589 117.648 158.544 117.884 158.505C118.123 158.465 118.47 158.419 118.942 158.372C120.216 158.244 122.408 158.206 124.458 158.206C125.79 158.206 127.067 158.221 128.011 158.237C128.954 158.253 129.561 158.269 129.562 158.269C129.835 158.276 130.071 158.075 130.108 157.805C130.147 157.534 129.975 157.276 129.711 157.207C129.705 157.206 129.166 157.066 128.469 156.925C127.767 156.785 126.922 156.64 126.241 156.638C125.66 156.639 124.262 156.587 122.841 156.48C121.426 156.376 119.947 156.201 119.29 156C119.069 155.935 118.859 155.824 118.735 155.719L118.618 155.592L118.606 155.568L118.576 155.577H118.607L118.606 155.568L118.576 155.577H118.607H118.549L118.605 155.592L118.607 155.577H118.549L118.605 155.592L118.606 155.59C118.614 155.572 118.691 155.473 118.908 155.362C119.554 155.013 121.287 154.647 124.586 154.629C125.998 154.617 127.341 154.614 128.505 154.614C130.836 154.614 132.443 154.629 132.447 154.629C132.653 154.63 132.841 154.515 132.933 154.33C133.519 153.154 133.607 152.139 133.607 151.636C133.607 151.434 133.593 151.312 133.591 151.293C133.558 151.023 133.329 150.82 133.057 150.82C133.055 150.82 132.458 150.82 131.67 150.802C130.883 150.783 129.906 150.745 129.176 150.672C128.553 150.611 127.948 150.515 127.569 150.356C127.379 150.278 127.254 150.188 127.192 150.114C127.13 150.037 127.106 149.987 127.102 149.857C127.102 149.762 127.126 149.623 127.2 149.436L127.182 149.429L127.199 149.439L127.2 149.436L127.182 149.429L127.199 149.439C127.196 149.431 127.309 149.314 127.553 149.212C127.915 149.055 128.513 148.916 129.219 148.828C129.926 148.738 130.744 148.694 131.58 148.694C132.792 148.693 134.042 148.788 135.041 148.963C135.539 149.051 135.977 149.16 136.305 149.278C136.634 149.393 136.848 149.536 136.892 149.594C136.946 149.655 136.993 149.76 136.995 149.978C136.998 150.312 136.851 150.842 136.601 151.406C136.229 152.256 135.649 153.196 135.165 153.913C134.923 154.271 134.705 154.575 134.547 154.79C134.39 155.003 134.298 155.122 134.297 155.123L134.273 155.155L134.721 155.454Z" fill="#17282F"/>
<path d="M123.675 160.763C123.675 160.763 126.852 161.37 129.878 160.915L123.675 160.763Z" fill="white"/>
<path d="M123.574 161.292C123.594 161.297 125.3 161.622 127.436 161.623C128.237 161.623 129.099 161.577 129.959 161.448C130.253 161.403 130.455 161.129 130.411 160.835C130.367 160.541 130.092 160.337 129.798 160.381C129.007 160.501 128.195 160.545 127.436 160.545C126.422 160.545 125.503 160.466 124.838 160.387C124.505 160.349 124.237 160.31 124.053 160.281C123.869 160.252 123.776 160.233 123.775 160.233C123.483 160.177 123.201 160.369 123.146 160.662C123.09 160.955 123.282 161.237 123.574 161.292Z" fill="#17282F"/>
<path d="M120.236 168.547L117.78 171.536C117.78 171.536 112.694 171.184 110.063 172.767C107.432 174.348 105.328 184.193 103.924 187.007C102.521 189.819 102.872 202.3 104.1 204.235C105.328 206.168 111.115 207.224 115.851 203.707C120.586 200.191 127.426 188.589 127.953 183.842C128.48 179.095 127.426 175.755 127.602 175.228C127.777 174.701 129.707 172.239 129.707 172.239C129.707 172.239 123.919 171.711 120.236 168.547Z" fill="#6382A5"/>
<path d="M120.236 168.547L119.821 168.205L117.365 171.193L117.78 171.536L117.817 170.998C117.807 170.998 117.315 170.963 116.557 170.963C115.702 170.963 114.512 171.006 113.286 171.191C112.06 171.377 110.799 171.698 109.786 172.304C108.954 172.819 108.325 173.799 107.709 175.023C106.8 176.862 105.994 179.285 105.277 181.517C104.565 183.742 103.931 185.795 103.443 186.765C103.069 187.528 102.853 188.676 102.698 190.093C102.547 191.505 102.478 193.164 102.478 194.853C102.478 196.909 102.58 199.004 102.77 200.733C102.865 201.598 102.981 202.37 103.12 203.009C103.263 203.65 103.411 204.146 103.645 204.525C104.067 205.178 104.796 205.662 105.712 206.012C106.63 206.358 107.748 206.559 108.976 206.559C111.208 206.559 113.814 205.89 116.172 204.141C118.651 202.29 121.544 198.486 123.94 194.514C125.136 192.53 126.198 190.507 126.999 188.67C127.798 186.83 128.342 185.188 128.487 183.901C128.597 182.914 128.64 181.986 128.64 181.131C128.64 179.621 128.506 178.336 128.375 177.346C128.309 176.851 128.244 176.429 128.195 176.096C128.147 175.765 128.118 175.512 128.12 175.403L128.121 175.363L127.946 175.343L128.112 175.398L128.121 175.363L127.946 175.343L128.112 175.398H128.113L128.116 175.389C128.148 175.31 128.307 175.046 128.507 174.756C128.811 174.313 129.218 173.764 129.548 173.329C129.878 172.893 130.129 172.573 130.13 172.572C130.251 172.417 130.279 172.207 130.201 172.025C130.122 171.844 129.952 171.72 129.755 171.702C129.755 171.702 129.676 171.695 129.518 171.675C128.404 171.544 123.638 170.776 120.586 168.138C120.477 168.044 120.332 167.998 120.189 168.01C120.046 168.022 119.912 168.094 119.821 168.205L120.236 168.547L119.885 168.957C123.764 172.265 129.613 172.761 129.659 172.776L129.707 172.239L129.284 171.905C129.282 171.908 128.798 172.526 128.288 173.215C128.033 173.559 127.773 173.92 127.559 174.236C127.452 174.394 127.357 174.541 127.28 174.674C127.201 174.808 127.14 174.916 127.092 175.058V175.056C127.047 175.197 127.045 175.297 127.044 175.403C127.045 175.639 127.082 175.904 127.13 176.25C127.279 177.276 127.563 178.959 127.564 181.131C127.564 181.95 127.523 182.838 127.419 183.783C127.3 184.87 126.791 186.458 126.013 188.238C124.846 190.914 123.084 194.046 121.179 196.823C119.278 199.599 117.217 202.026 115.53 203.274C113.378 204.873 110.997 205.48 108.976 205.48C107.866 205.481 106.866 205.296 106.091 205.003C105.314 204.712 104.774 204.304 104.553 203.946C104.451 203.793 104.294 203.359 104.171 202.779C103.786 201.021 103.552 197.879 103.553 194.853C103.553 193.194 103.622 191.566 103.767 190.207C103.908 188.855 104.146 187.753 104.405 187.247C104.784 186.484 105.177 185.335 105.617 183.984C106.272 181.962 107.017 179.505 107.835 177.423C108.244 176.384 108.671 175.438 109.103 174.701C109.532 173.96 109.981 173.438 110.339 173.229C111.148 172.739 112.298 172.427 113.446 172.257C114.594 172.083 115.739 172.041 116.557 172.041C116.92 172.041 117.218 172.05 117.426 172.058C117.633 172.066 117.742 172.074 117.742 172.074C117.917 172.086 118.084 172.013 118.195 171.879L120.651 168.89L120.236 168.547L119.885 168.957L120.236 168.547Z" fill="#17282F"/>
<path d="M52.1826 317.273C52.1826 317.273 57.4447 330.109 64.2852 333.447L68.8455 330.81C68.8455 330.81 64.6362 325.36 62.0045 321.142C59.3741 316.922 57.2695 313.407 57.2695 313.407C57.2695 313.407 52.8845 315.517 52.1826 317.273Z" fill="white"/>
<path d="M52.1828 317.273L51.6852 317.479C51.692 317.495 53.0154 320.722 55.2078 324.386C57.4087 328.047 60.4439 332.157 64.0497 333.932C64.2098 334.01 64.3998 334.003 64.5541 333.915L69.1142 331.277C69.2492 331.199 69.3433 331.068 69.3735 330.915C69.4034 330.762 69.3664 330.603 69.271 330.48C69.2701 330.479 69.0101 330.143 68.5759 329.568C67.2731 327.844 64.4157 323.991 62.4611 320.856C61.147 318.749 59.9643 316.816 59.11 315.411C58.256 314.006 57.7324 313.131 57.7312 313.129C57.5882 312.891 57.2874 312.801 57.0368 312.921C57.0259 312.927 55.9164 313.46 54.7027 314.225C54.0959 314.609 53.4626 315.049 52.9204 315.521C52.3804 315.998 51.9215 316.493 51.6836 317.074C51.6315 317.204 51.6323 317.349 51.6852 317.479L52.1828 317.273L52.6826 317.474C52.7952 317.177 53.1473 316.749 53.6269 316.335C54.3438 315.708 55.3218 315.088 56.1123 314.635C56.5081 314.408 56.8578 314.222 57.1075 314.092C57.3567 313.963 57.5021 313.894 57.5026 313.893L57.2697 313.407L56.8082 313.685C56.8095 313.686 58.9149 317.204 61.5488 321.428C64.204 325.684 68.4149 331.133 68.4204 331.14L68.8457 330.81L68.5767 330.343L64.0165 332.98L64.2854 333.447L64.5208 332.963C61.2865 331.398 58.2703 327.422 56.1304 323.831C55.0561 322.037 54.1917 320.343 53.5971 319.098C53.2999 318.477 53.0696 317.967 52.9145 317.614C52.7595 317.262 52.6809 317.07 52.6804 317.069L52.1828 317.273L52.6826 317.474L52.1828 317.273Z" fill="#17282F"/>
<path d="M70.7744 328.877L70.5991 333.096C70.5991 333.096 78.492 335.734 82.7013 335.381C86.9106 335.03 91.9971 332.393 91.9971 332.393L91.6466 328.174C91.6466 328.174 82.1748 332.393 70.7744 328.877Z" fill="white"/>
<path d="M70.7748 328.877L70.2373 328.854L70.062 333.074C70.0519 333.315 70.2011 333.532 70.4293 333.609C70.4373 333.611 72.1818 334.193 74.4772 334.778C76.776 335.361 79.6132 335.951 81.8717 335.953C82.1734 335.953 82.466 335.942 82.7462 335.919C84.9417 335.734 87.2981 334.971 89.1237 334.258C90.9472 333.545 92.2332 332.878 92.2445 332.872C92.4374 332.772 92.5513 332.566 92.5332 332.348L92.1827 328.128C92.1684 327.955 92.0709 327.798 91.921 327.71C91.7709 327.621 91.5877 327.61 91.4284 327.681L91.3822 327.7C90.882 327.914 86.3988 329.738 80.141 329.737C77.3598 329.737 74.2281 329.378 70.9328 328.361C70.773 328.313 70.6008 328.34 70.4642 328.437C70.3276 328.534 70.2444 328.687 70.2373 328.854L70.7748 328.877L70.6163 329.392C74.0271 330.445 77.2677 330.816 80.141 330.816C87.0388 330.814 91.8218 328.685 91.8655 328.667L91.647 328.174L91.1106 328.218L91.4612 332.437L91.9975 332.393L91.7503 331.915C91.7499 331.915 91.6763 331.952 91.5326 332.023C90.5324 332.524 86.1898 334.557 82.6571 334.844C82.4109 334.865 82.1483 334.875 81.8717 334.875C79.7944 334.877 76.9954 334.309 74.742 333.733C73.614 333.446 72.6185 333.158 71.9065 332.942C71.1941 332.728 70.7706 332.585 70.7693 332.585L70.5995 333.096L71.1366 333.119L71.3123 328.9L70.7748 328.877L70.6163 329.392L70.7748 328.877Z" fill="#17282F"/>
<path d="M87.4651 114.304C87.4651 114.305 87.505 114.602 87.5659 115.166C87.7491 116.86 88.1168 120.923 88.1168 126.203C88.1168 130.504 87.8727 135.614 87.0873 140.906C85.7495 149.934 84.1732 161.472 84.1719 170.732C84.1765 175.892 84.6502 180.339 85.9937 183.331C89.655 191.432 95.9556 196.589 95.9871 196.619C96.2169 196.808 96.5561 196.774 96.744 196.544C96.9323 196.313 96.8982 195.973 96.6684 195.785L96.604 195.731C95.9358 195.169 90.2858 190.234 86.9737 182.886C85.7445 180.178 85.2435 175.819 85.2477 170.732C85.2469 161.589 86.8145 150.077 88.1517 141.064C88.9465 135.705 89.1927 130.545 89.1927 126.203C89.1927 119.096 88.5333 114.178 88.5313 114.16C88.4918 113.865 88.2211 113.658 87.9265 113.698C87.6323 113.738 87.4255 114.008 87.4651 114.304Z" fill="#17282F"/>
<path d="M104.881 122.325C104.88 122.327 104.762 123.284 104.564 124.879C103.97 129.664 102.657 140.159 101.663 147.555C101 152.493 99.533 164.068 98.231 175.243C97.58 180.831 96.9702 186.318 96.5235 190.826C96.0763 195.339 95.7909 198.855 95.7901 200.566C95.7859 204.009 96.9811 206.591 98.7429 208.326C100.503 210.063 102.796 210.958 104.988 211.159L105.245 211.171C106.531 211.159 107.779 210.363 109.019 209.107C110.877 207.208 112.744 204.165 114.379 200.494C116.011 196.823 117.401 192.527 118.248 188.146C120.521 176.371 121.848 167.636 121.848 167.631L121.317 167.55L121.814 167.755L123.139 164.529C123.252 164.254 123.121 163.94 122.846 163.826C122.571 163.712 122.257 163.844 122.144 164.12L120.819 167.345L120.785 167.469C120.784 167.47 120.702 168.011 120.543 169.012C120.064 172.014 118.894 179.125 117.192 187.941C116.087 193.667 114.022 199.272 111.735 203.414C110.592 205.484 109.392 207.189 108.252 208.351C107.112 209.522 106.039 210.104 105.245 210.092L105.085 210.085C103.111 209.906 101.05 209.094 99.498 207.558C97.9464 206.02 96.8698 203.763 96.8659 200.566C96.8647 198.956 97.1476 195.428 97.5938 190.933C98.9324 177.436 101.737 155.092 102.729 147.698C104.055 137.827 105.948 122.457 105.948 122.456C105.985 122.161 105.775 121.892 105.48 121.856C105.185 121.819 104.917 122.029 104.881 122.325Z" fill="#17282F"/>
<path d="M84.2799 167.844C84.2799 167.844 86.7354 166.437 88.1383 163.976C89.5415 161.514 91.8219 154.132 92.699 152.726C93.5756 151.318 94.8032 151.143 97.6097 150.44C100.416 149.736 102.697 149.736 103.397 149.736C104.099 149.736 113.219 154.835 112.343 155.714C111.466 156.593 110.764 157.296 109.361 156.241C107.957 155.186 104.099 153.78 104.099 153.78C104.099 153.78 104.976 157.999 106.204 159.758C107.432 161.514 106.555 162.57 105.503 163.625C104.45 164.679 104.275 166.79 102.345 166.261C100.416 165.735 102.521 163.449 102.697 162.394C102.872 161.34 98.1358 160.988 98.1358 160.988C98.1358 160.988 96.5573 167.316 94.4527 168.723C92.348 170.129 88.6649 170.657 88.6649 170.657L83.4028 173.293L84.2799 167.844Z" fill="white"/>
<path d="M84.28 167.844L84.5469 168.312C84.5843 168.284 87.1063 166.858 88.6058 164.244C89.3492 162.933 90.2612 160.479 91.121 158.141C91.5489 156.975 91.9594 155.845 92.3154 154.925C92.6671 154.01 92.9824 153.283 93.155 153.011C93.5442 152.401 93.9309 152.108 94.6306 151.82C95.3283 151.537 96.3297 151.315 97.7401 150.963C100.483 150.276 102.709 150.276 103.398 150.276V149.975L103.351 150.272L103.398 150.276V149.975L103.351 150.272L103.353 150.273C103.409 150.284 103.651 150.377 103.953 150.519C105.032 151.021 107.085 152.151 108.84 153.266C109.717 153.822 110.523 154.379 111.093 154.841C111.376 155.072 111.6 155.28 111.735 155.437L111.863 155.61L111.872 155.627L111.873 155.63L112.05 155.567H111.864L111.873 155.63L112.05 155.567H111.864H112.196L111.962 155.333L111.864 155.567H112.196L111.962 155.333C111.682 155.616 111.433 155.859 111.214 156.012C110.99 156.168 110.823 156.23 110.638 156.231C110.432 156.231 110.133 156.146 109.684 155.81C108.894 155.221 107.572 154.613 106.414 154.118C105.26 153.629 104.289 153.276 104.284 153.273C104.1 153.207 103.895 153.244 103.747 153.373C103.599 153.501 103.533 153.698 103.573 153.89C103.575 153.899 103.796 154.964 104.175 156.261C104.559 157.561 105.079 159.076 105.763 160.066C106.146 160.616 106.264 161.028 106.265 161.361C106.264 161.676 106.161 161.96 105.959 162.273C105.759 162.584 105.459 162.906 105.122 163.243C104.555 163.821 104.258 164.539 103.93 165.05C103.77 165.307 103.609 165.505 103.453 165.625C103.293 165.744 103.152 165.802 102.913 165.806C102.797 165.806 102.657 165.788 102.487 165.741C102.259 165.679 102.169 165.603 102.132 165.558C102.097 165.512 102.077 165.471 102.075 165.352C102.063 165.092 102.276 164.564 102.549 164.049C102.683 163.789 102.827 163.524 102.949 163.267C103.072 163.007 103.179 162.76 103.227 162.483L103.239 162.337C103.238 161.993 103.042 161.734 102.853 161.578C102.511 161.296 102.086 161.144 101.601 161.001C100.162 160.593 98.1935 160.453 98.1759 160.45C97.9149 160.431 97.6774 160.603 97.6141 160.856C97.6141 160.858 97.5909 160.95 97.5447 161.122C97.3829 161.725 96.9446 163.267 96.3268 164.789C96.0184 165.551 95.6645 166.308 95.2875 166.932C94.9126 167.557 94.5045 168.045 94.1544 168.274C93.1958 168.918 91.7879 169.397 90.6348 169.695C90.0573 169.845 89.5425 169.952 89.1735 170.023C88.9895 170.057 88.8416 170.083 88.7407 170.099C88.6399 170.115 88.589 170.123 88.589 170.123L88.4247 170.175L84.101 172.341L84.8113 167.929L84.28 167.844L84.5469 168.312L84.28 167.844L83.7493 167.758L82.8717 173.208C82.8393 173.407 82.9213 173.608 83.0844 173.728C83.2474 173.849 83.4623 173.867 83.6433 173.776L88.9054 171.139L88.665 170.657L88.7411 171.19C88.7545 171.188 89.6917 171.055 90.9046 170.739C92.1191 170.422 93.6052 169.933 94.7512 169.172C95.4022 168.73 95.9166 168.012 96.3852 167.185C97.7695 164.709 98.6496 161.14 98.658 161.118L98.136 160.988L98.0965 161.525C98.0969 161.525 98.3709 161.546 98.7899 161.592C99.4178 161.662 100.366 161.792 101.122 161.989C101.499 162.085 101.829 162.202 102.02 162.309L102.183 162.425L102.186 162.429L102.326 162.337H102.163L102.186 162.429L102.326 162.337H102.163H102.355L102.166 162.306L102.163 162.337H102.355L102.166 162.306C102.154 162.392 102.086 162.582 101.979 162.802C101.82 163.135 101.586 163.546 101.385 163.976C101.186 164.409 101.004 164.856 100.999 165.352C100.996 165.648 101.082 165.979 101.301 166.243C101.519 166.508 101.833 166.681 102.204 166.782C102.452 166.849 102.687 166.884 102.913 166.884C103.38 166.888 103.797 166.724 104.109 166.479C104.579 166.11 104.851 165.618 105.111 165.164C105.367 164.706 105.607 164.279 105.883 164.006C106.233 163.654 106.584 163.287 106.861 162.86C107.138 162.436 107.341 161.933 107.341 161.361C107.341 160.755 107.114 160.117 106.645 159.448C106.102 158.68 105.569 157.206 105.208 155.957C105.025 155.331 104.879 154.757 104.779 154.341C104.679 153.924 104.626 153.67 104.626 153.67L104.1 153.78L103.916 154.287C103.916 154.287 104.151 154.372 104.531 154.519C105.1 154.739 105.988 155.095 106.858 155.489C107.724 155.882 108.582 156.326 109.039 156.672C109.593 157.09 110.118 157.309 110.638 157.31C111.103 157.311 111.507 157.126 111.833 156.895C112.162 156.662 112.441 156.377 112.724 156.096C112.862 155.963 112.945 155.745 112.94 155.567C112.936 155.333 112.854 155.17 112.767 155.023C112.596 154.751 112.352 154.507 112.042 154.233C110.961 153.291 109.022 152.069 107.254 151.053C106.371 150.546 105.535 150.097 104.878 149.77C104.549 149.606 104.266 149.473 104.035 149.376C103.92 149.329 103.818 149.289 103.723 149.259C103.623 149.23 103.551 149.202 103.398 149.197C102.684 149.197 100.349 149.197 97.4792 149.917C96.0834 150.267 95.0677 150.485 94.2309 150.818C93.3959 151.145 92.7306 151.643 92.2427 152.44C91.9775 152.871 91.6787 153.594 91.3122 154.535C90.7693 155.94 90.1141 157.789 89.464 159.515C88.8159 161.237 88.1637 162.849 87.6716 163.709C87.016 164.86 86.0955 165.788 85.3387 166.419C84.9608 166.735 84.6242 166.977 84.3851 167.139C84.2653 167.22 84.17 167.28 84.1056 167.32L84.0333 167.363L84.0132 167.375C83.8715 167.457 83.7753 167.596 83.7493 167.758L84.28 167.844Z" fill="#17282F"/>
<path d="M106.343 159.236L98.4498 157.127C98.1628 157.05 97.8682 157.22 97.7917 157.508C97.7152 157.796 97.8859 158.092 98.1729 158.168L106.065 160.279C106.352 160.355 106.647 160.184 106.723 159.896C106.8 159.609 106.63 159.313 106.343 159.236Z" fill="#17282F"/>
<path d="M105.165 156.967L98.1493 154.329C97.871 154.226 97.5609 154.367 97.4567 154.645C97.3525 154.924 97.4933 155.235 97.7714 155.34L104.787 157.976C105.065 158.081 105.376 157.94 105.48 157.661C105.584 157.382 105.443 157.071 105.165 156.967Z" fill="#17282F"/>
<path d="M104.205 153.251L97.1892 151.845C96.898 151.787 96.6148 151.976 96.5564 152.267C96.4984 152.56 96.687 152.844 96.9782 152.903L103.994 154.309C104.285 154.367 104.569 154.177 104.627 153.886C104.685 153.594 104.496 153.309 104.205 153.251Z" fill="#17282F"/>
<path d="M84.9813 164.152L87.6126 177.161L77.4397 180.854L75.6855 167.316L84.9813 164.152Z" fill="#6382A5"/>
<path d="M84.9816 164.152L84.4541 164.26L86.9934 176.812L77.8871 180.117L76.2763 167.685L85.1547 164.663L84.9816 164.152L84.4541 164.26L84.9816 164.152L84.8084 163.642L75.5131 166.806C75.2702 166.889 75.1194 167.131 75.1525 167.386L76.9067 180.923C76.9277 181.086 77.0206 181.229 77.1601 181.314C77.2996 181.399 77.4694 181.416 77.6232 181.361L87.7961 177.668C88.0465 177.578 88.1927 177.316 88.1402 177.054L85.509 164.045C85.4783 163.894 85.3829 163.762 85.2497 163.685C85.1165 163.609 84.9543 163.592 84.8084 163.642L84.9816 164.152Z" fill="#17282F"/>
<path d="M75.6857 167.316C75.6857 167.316 70.5994 163.976 69.5471 164.152C68.4947 164.328 56.9187 171.36 56.9187 171.36C56.9187 171.36 59.3742 157.472 57.971 150.44C56.5677 143.408 53.4111 135.145 52.0079 135.848C50.6042 136.551 44.466 143.759 41.6595 155.011C38.8534 166.261 37.2749 173.645 37.2749 180.151C37.2749 186.654 38.5025 197.203 41.1333 196.851C43.7641 196.5 70.0732 189.643 74.6339 185.951C79.1937 182.26 77.4399 180.854 77.4399 180.854L75.6857 167.316Z" fill="#6382A5"/>
<path d="M75.6856 167.316L75.9806 166.865C75.9756 166.862 74.7636 166.066 73.3889 165.265C72.7009 164.864 71.9734 164.462 71.3267 164.154C71.0027 164 70.6993 163.87 70.4227 163.773C70.1433 163.678 69.9008 163.61 69.6356 163.606L69.4578 163.621H69.4581C69.2976 163.651 69.1829 163.699 69.0198 163.767C68.4361 164.018 67.4049 164.576 66.141 165.289C62.3642 167.422 56.6419 170.897 56.6399 170.899L56.9185 171.36L57.4481 171.455C57.4497 171.439 58.9404 163.028 58.9416 155.916C58.9413 153.882 58.8205 151.952 58.4982 150.334C57.8174 146.924 56.7344 143.246 55.6279 140.396C55.0731 138.97 54.5155 137.754 53.9835 136.866C53.7161 136.421 53.4577 136.058 53.1854 135.781C53.0483 135.641 52.9076 135.523 52.7465 135.429C52.5864 135.337 52.3986 135.268 52.1851 135.267C52.0435 135.267 51.8951 135.302 51.767 135.366H51.7674C51.5043 135.501 51.24 135.713 50.9092 136.018C49.7724 137.078 47.9682 139.292 46.1149 142.502C44.265 145.709 42.3792 149.902 41.1373 154.879C38.3308 166.137 36.7384 173.554 36.7368 180.151C36.7372 183.383 37.0343 187.577 37.6572 191.001C37.9699 192.715 38.3599 194.231 38.8575 195.365C39.1083 195.934 39.3835 196.409 39.7228 196.773C40.056 197.133 40.496 197.399 41.0054 197.398L41.2037 197.385C41.5786 197.334 42.2729 197.189 43.2626 196.958C46.7104 196.156 53.5896 194.341 60.1221 192.32C63.3884 191.308 66.566 190.246 69.188 189.23C71.815 188.207 73.8654 187.258 74.9716 186.371C76.2896 185.303 77.1119 184.409 77.6171 183.647C78.121 182.888 78.3093 182.247 78.3088 181.723C78.3106 180.907 77.8483 180.484 77.776 180.432L77.4398 180.854L77.9731 180.784L76.2189 167.247C76.1988 167.091 76.1122 166.952 75.9806 166.865L75.6856 167.316L75.1523 167.386L76.9065 180.923C76.9241 181.062 76.9947 181.187 77.1036 181.274L77.2801 181.053L77.0876 181.26L77.1036 181.274L77.2801 181.053L77.0876 181.26L77.1069 181.283C77.1464 181.337 77.2313 181.46 77.233 181.723C77.233 181.984 77.1414 182.414 76.7207 183.05C76.3013 183.686 75.5549 184.513 74.2953 185.532C73.7906 185.943 72.9055 186.446 71.7659 186.977C67.7641 188.844 60.6272 191.118 54.2309 192.945C51.0306 193.861 48.0116 194.669 45.6513 195.265C43.2996 195.86 41.571 196.251 41.0621 196.316L41.0054 196.32C40.8789 196.32 40.7255 196.264 40.507 196.035C40.1296 195.641 39.7118 194.771 39.3714 193.626C38.3279 190.179 37.8093 184.302 37.8127 180.151C37.8105 173.737 39.3752 166.387 42.1812 155.141C43.5681 149.579 45.7812 145.013 47.8153 141.76C48.8323 140.134 49.8048 138.836 50.6007 137.909C50.9987 137.446 51.3525 137.076 51.6413 136.807C51.9259 136.54 52.1603 136.371 52.2482 136.331H52.2486L52.1851 136.203V136.346L52.2486 136.331L52.1851 136.203V136.346V136.294L52.1691 136.345L52.1851 136.346V136.294L52.1691 136.345C52.1872 136.342 52.3541 136.443 52.5423 136.672C52.8807 137.069 53.3114 137.799 53.754 138.74C55.0912 141.567 56.5974 146.3 57.4434 150.545C57.7447 152.053 57.8661 153.926 57.8657 155.916C57.8661 159.4 57.4972 163.245 57.1273 166.213C56.9424 167.697 56.7576 168.962 56.6189 169.855C56.4805 170.747 56.389 171.265 56.389 171.266C56.352 171.474 56.4402 171.686 56.6147 171.805C56.7887 171.925 57.0169 171.931 57.1972 171.821C57.1992 171.82 57.9195 171.383 59.0202 170.722C60.6715 169.729 63.1733 168.237 65.3568 166.977C66.4483 166.349 67.4611 165.777 68.244 165.359C68.6349 165.15 68.9691 164.978 69.2211 164.858C69.3468 164.799 69.4523 164.753 69.5293 164.723L69.6192 164.689L69.6398 164.684L69.6267 164.633L69.6351 164.684H69.6398L69.6267 164.633L69.6351 164.684H69.6356V164.685V164.684V164.685C69.6755 164.682 69.8512 164.713 70.0692 164.792C70.8552 165.062 72.2181 165.815 73.344 166.49C73.9095 166.828 74.4223 167.148 74.7929 167.383C75.1641 167.618 75.3901 167.767 75.391 167.768L75.6856 167.316L75.1523 167.386L75.6856 167.316Z" fill="#17282F"/>
<path d="M40.0811 176.986C40.0811 176.986 53.0604 170.657 56.9188 171.36C56.9188 171.36 51.1309 175.052 49.201 177.689" fill="#6382A5"/>
<path d="M40.3163 177.471C40.3167 177.471 40.495 177.384 40.8206 177.229C41.9591 176.689 44.8761 175.334 47.989 174.118C49.5448 173.511 51.1502 172.939 52.5988 172.52C54.0454 172.102 55.3457 171.843 56.2366 171.845C56.4619 171.845 56.6598 171.861 56.8224 171.89L56.9187 171.36L56.6299 170.906C56.6233 170.91 55.1678 171.838 53.4633 173.102C51.7562 174.373 49.81 175.954 48.7673 177.37C48.5916 177.61 48.6434 177.947 48.8829 178.123C49.1224 178.299 49.4591 178.247 49.6348 178.008C50.5215 176.787 52.4341 175.203 54.1034 173.969C54.9392 173.348 55.7172 172.809 56.2849 172.425C56.8527 172.041 57.2066 171.816 57.2074 171.815C57.394 171.696 57.489 171.474 57.4465 171.256C57.4041 171.04 57.2322 170.869 57.0149 170.829C56.7712 170.785 56.5122 170.767 56.2366 170.767C55.0023 170.77 53.4054 171.14 51.6524 171.678C46.4122 173.297 39.8586 176.496 39.8456 176.501C39.5783 176.631 39.4674 176.954 39.5973 177.222C39.7271 177.489 40.049 177.601 40.3163 177.471Z" fill="#17282F"/>
<path d="M56.9186 171.36C56.9186 171.36 52.1826 163.097 48.3242 160.284L56.9186 171.36Z" fill="#93D222"/>
<path d="M57.385 171.091C57.3803 171.084 56.1905 169.008 54.5108 166.571C52.8247 164.131 50.6759 161.338 48.6406 159.848C48.4002 159.673 48.0636 159.726 47.8892 159.967C47.7144 160.208 47.7673 160.545 48.0077 160.721C49.8308 162.043 51.9792 164.788 53.6257 167.183C54.452 168.382 55.1597 169.495 55.6606 170.308C55.9107 170.715 56.109 171.046 56.2448 171.275C56.3805 171.504 56.452 171.628 56.452 171.628C56.5999 171.887 56.9289 171.975 57.1866 171.828C57.4443 171.679 57.5329 171.35 57.385 171.091Z" fill="#17282F"/>
<path d="M0.537443 377.126H407.464C407.761 377.126 408.002 376.884 408.002 376.587C408.002 376.289 407.761 376.047 407.464 376.047H0.537443C0.24074 376.047 -0.000488281 376.289 -0.000488281 376.587C-0.000488281 376.884 0.24074 377.126 0.537443 377.126Z" fill="#17282F"/>
<rect x="164.114" y="57.5264" width="101.518" height="107.868" rx="8.5" stroke="#6382A5"/>
</g>
<defs>
<clipPath id="clip0_55_911">
<rect width="408" height="377" fill="white"/>
</clipPath>
</defs>
</svg>
