<svg width="34" height="35" viewBox="0 0 34 35" fill="none" xmlns="http://www.w3.org/2000/svg">
<path fill-rule="evenodd" clip-rule="evenodd" d="M16.9993 34.0015C26.02 34.0015 33.3327 26.5392 33.3327 17.3341C33.3327 8.12889 26.02 0.666626 16.9993 0.666626C7.9787 0.666626 0.666016 8.12889 0.666016 17.3341C0.666016 26.5392 7.9787 34.0015 16.9993 34.0015ZM7.892 13.7385C12.6325 12.2766 20.8238 12.5521 25.7897 15.5481C26.4728 15.9611 27.3578 15.7318 27.764 15.0362C28.1698 14.3417 27.9452 13.4434 27.2605 13.0305C21.5437 9.58297 12.4973 9.25871 7.05553 10.937C6.29374 11.1721 5.86437 11.9894 6.09506 12.7631C6.32575 13.5364 7.13077 13.973 7.892 13.7385ZM23.9749 20.3874C24.5395 20.7401 25.2787 20.5599 25.6271 19.9856C25.9743 19.4128 25.7965 18.6613 25.232 18.3081C20.4769 15.3395 13.5211 14.5041 7.92567 16.2289C7.29174 16.4252 6.93338 17.1055 7.12488 17.7508C7.31767 18.3948 7.98859 18.7587 8.62381 18.5636C13.5218 17.0533 19.8349 17.8022 23.9749 20.3874ZM22.4217 24.5719C22.8741 24.853 23.4652 24.7085 23.7421 24.2473C24.0187 23.7875 23.8762 23.1867 23.4234 22.9058C19.3628 20.385 14.3289 19.7985 8.46063 21.1613C7.9426 21.2811 7.62011 21.8044 7.7384 22.3292C7.85632 22.8542 8.37123 23.1831 8.88798 23.0628C14.2505 21.8184 18.8039 22.3257 22.4217 24.5719Z" fill="white"/>
</svg>
