<svg width="32" height="23" viewBox="0 0 32 23" fill="none" xmlns="http://www.w3.org/2000/svg">
<path fill-rule="evenodd" clip-rule="evenodd" d="M28.4457 0.683538C29.8128 1.0516 30.8907 2.12948 31.2587 3.49656C31.9423 5.9941 31.916 11.1995 31.916 11.1995C31.916 11.1995 31.916 16.3786 31.2587 18.8762C30.8907 20.2432 29.8128 21.3211 28.4457 21.6892C25.9482 22.3464 15.958 22.3464 15.958 22.3464C15.958 22.3464 5.9941 22.3464 3.47027 21.6629C2.10319 21.2948 1.02531 20.217 0.657248 18.8499C0 16.3786 0 11.1732 0 11.1732C0 11.1732 0 5.9941 0.657248 3.49656C1.02531 2.12948 2.12948 1.02531 3.47027 0.657248C5.96781 0 15.958 0 15.958 0C15.958 0 25.9482 0 28.4457 0.683538ZM22.0329 11.7804L12.7095 17.1502V6.41059L22.0329 11.7804Z" fill="#FF431A"/>
</svg>
